<?xml version='1.0' encoding='UTF-8'?>
<!DOCTYPE svg PUBLIC "-//W3C//DTD SVG 1.1//EN" "http://www.w3.org/Graphics/SVG/1.1/DTD/svg11.dtd">
<!-- Generated by graphviz version 2.38.0 (20140413.2041)
 --><!-- Title: %3 Pages: 1 --><svg xmlns="http://www.w3.org/2000/svg" xmlns:xlink="http://www.w3.org/1999/xlink" width="1331pt" height="1124pt" viewBox="0.00 0.00 1330.63 1124.00" id="svg">
<script href="https://ajax.googleapis.com/ajax/libs/jquery/3.2.1/jquery.min.js" id="jquery" type="text/javascript"/><script id="my_javascript" type="text/javascript"><![CDATA[const HOVER_CLASS = "my_hover";

var selectedElement = null;

function addClass(rootElement) {
    $(rootElement).find('link').each(function (index, element) {
        var target = $(element).attr('target');
        var currentElement = $('#' + target);
        currentElement.addClass(HOVER_CLASS);

        addClass(currentElement);
    })
}

function removeClass(rootElement, hover) {
    $(rootElement).find('link').each(function (index, element) {
        if ($(rootElement).attr('id') !== $(selectedElement).attr('id') || !hover) {
            var target = $(element).attr('target');
            var currentElement = $('#' + target);
            currentElement.removeClass(HOVER_CLASS);

            removeClass(currentElement);
        }

    })
}

function hoverIn(event) {
    addClass(event.currentTarget);
}

function hoverOut(event) {
    removeClass(event.currentTarget, true);
}

function clickOnElement(event) {
    var newElement = event.currentTarget;

    if ($(newElement).attr('id') === $(selectedElement).attr('id')) {
        removeClass(selectedElement, false);
    } else {
        removeClass(selectedElement);
        addClass(newElement)
    }

    selectedElement = newElement;
}


$("#svg").ready(function () {

    $("g[id^=play_]").hover(hoverIn, hoverOut);
    $("g[id^=role_]").hover(hoverIn, hoverOut);

    $("g[id^=play_]").click(clickOnElement);
    $("g[id^=role_]").click(clickOnElement);

});
]]></script><style id="my_css" type="text/css"><![CDATA[.node:hover, .edge:hover, path:hover, path + polygon:hover {
    cursor: pointer;
    stroke-width: 3;
    font-weight: bolder;
}

.my_hover {
    cursor: pointer;
    stroke-width: 3;
    font-weight: bolder;
}

/**
Each element whose id ends with "not_tagged"
 */
[id$=not_tagged] {
    opacity: 0.3;
}]]></style><g id="graph0" class="graph" transform="scale(1 1) rotate(0) translate(4 1120)">
<polygon fill="white" stroke="none" points="-4,4 -4,-1120 1326.63,-1120 1326.63,4 -4,4"/>
<!-- cassandra_backup_verification.yml -->
<g id="root_node" class="node"><title>cassandra_backup_verification.yml</title>
<ellipse fill="none" stroke="black" stroke-dasharray="1,5" cx="174.834" cy="-573" rx="174.669" ry="18"/>
<text text-anchor="middle" x="174.834" y="-569.3" font-family="Times,serif" font-size="14.00">cassandra_backup_verification.yml</text>
</g>
<!-- Play #1: 127.0.0.1 (1) -->
<g id="play_4571b8bd-43b5-4de5-8b6d-65d5591808f1" class="node"><title>Play #1: 127.0.0.1 (1)</title>
<g id="a_play_4571b8bd-43b5-4de5-8b6d-65d5591808f1"><a xlink:title="127.0.0.1">
<polygon fill="#b4c613" stroke="#b4c613" points="604.669,-1089 431.669,-1089 431.669,-1053 604.669,-1053 604.669,-1089"/>
<text text-anchor="middle" x="518.169" y="-1067.3" font-family="Times,serif" font-size="14.00" fill="#ffffff">Play #1: 127.0.0.1 (1)</text>
</a>
</g>
<links><link target="edge_f322583d-d100-4b49-a777-5ae4b253fb55"/></links></g>
<!-- cassandra_backup_verification.yml&#45;&gt;Play #1: 127.0.0.1 (1) -->
<g id="edge_7411e0f2-b1a7-4a36-8ff5-b7be37d092ef" class="edge"><title>cassandra_backup_verification.yml-&gt;Play #1: 127.0.0.1 (1)</title>
<path fill="none" stroke="#b4c613" stroke-width="2" d="M180.095,-591.318C196.378,-657.55 260.665,-887.488 395.669,-1017 409.783,-1030.54 427.864,-1041.03 445.74,-1049.01"/>
<polygon fill="#b4c613" stroke="#b4c613" stroke-width="2" points="444.474,-1052.28 455.047,-1052.96 447.207,-1045.83 444.474,-1052.28"/>
<text text-anchor="middle" x="372.669" y="-1001.8" font-family="Times,serif" font-size="14.00" fill="#b4c613">1</text>
</g>
<!-- Play #2: 127.0.0.1 (1) -->
<g id="play_de82bdbc-b6a6-45a2-a4e3-14e28fe9a146" class="node"><title>Play #2: 127.0.0.1 (1)</title>
<g id="a_play_de82bdbc-b6a6-45a2-a4e3-14e28fe9a146"><a xlink:title="127.0.0.1">
<polygon fill="#ae9827" stroke="#ae9827" points="604.669,-1008 431.669,-1008 431.669,-972 604.669,-972 604.669,-1008"/>
<text text-anchor="middle" x="518.169" y="-986.3" font-family="Times,serif" font-size="14.00" fill="#ffffff">Play #2: 127.0.0.1 (1)</text>
</a>
</g>
<links><link target="edge_9c9c9281-b6aa-4596-beef-3a41fbd1a5f4"/><link target="edge_6dacabe9-0421-499a-acf9-5c2b0f9c28a4"/></links></g>
<!-- cassandra_backup_verification.yml&#45;&gt;Play #2: 127.0.0.1 (1) -->
<g id="edge_0b280a9a-0be4-43b7-8b25-8f6945c2b16e" class="edge"><title>cassandra_backup_verification.yml-&gt;Play #2: 127.0.0.1 (1)</title>
<path fill="none" stroke="#ae9827" stroke-width="2" d="M190.721,-591.186C244.947,-657.433 432.058,-886.022 495.747,-963.829"/>
<polygon fill="#ae9827" stroke="#ae9827" stroke-width="2" points="493.162,-966.197 502.204,-971.718 498.579,-961.763 493.162,-966.197"/>
<text text-anchor="middle" x="372.669" y="-821.8" font-family="Times,serif" font-size="14.00" fill="#ae9827">2</text>
</g>
<!-- Play #3: {{ target_group }} (0) -->
<g id="play_445ba24a-3c2b-479e-8f05-d6aed53b00ec" class="node"><title>Play #3: {{ target_group }} (0)</title>
<polygon fill="#24e2c8" stroke="#24e2c8" points="640.669,-792 395.669,-792 395.669,-756 640.669,-756 640.669,-792"/>
<text text-anchor="middle" x="518.169" y="-770.3" font-family="Times,serif" font-size="14.00" fill="#ffffff">Play #3: {{ target_group }} (0)</text>
<links><link target="edge_ec3a7567-4123-40b3-a53d-cfcbca697df2"/><link target="edge_9fd24c56-475e-40f3-92e7-fc7c11ba31e7"/><link target="edge_603f2b45-f1a4-4db8-88cb-92be66394204"/><link target="edge_8e7d6a4e-5ba6-40a2-a1fe-3748196b44e5"/><link target="edge_7e395862-023f-4555-a752-5ee4662112dc"/><link target="edge_abbf9b69-36d4-4956-975e-c201d04be0fa"/></links></g>
<!-- cassandra_backup_verification.yml&#45;&gt;Play #3: {{ target_group }} (0) -->
<g id="edge_5d30f4e5-3a43-47f0-92aa-5c214297af3d" class="edge"><title>cassandra_backup_verification.yml-&gt;Play #3: {{ target_group }} (0)</title>
<path fill="none" stroke="#24e2c8" stroke-width="2" d="M206.126,-590.837C267.96,-627.25 408.676,-710.112 477.617,-750.709"/>
<polygon fill="#24e2c8" stroke="#24e2c8" stroke-width="2" points="476.062,-753.855 486.455,-755.914 479.614,-747.823 476.062,-753.855"/>
<text text-anchor="middle" x="372.669" y="-694.8" font-family="Times,serif" font-size="14.00" fill="#24e2c8">3</text>
</g>
<!-- Play #4: {{ target_group }} (0) -->
<g id="play_6310ec4b-d528-4959-8531-9837a643c4f1" class="node"><title>Play #4: {{ target_group }} (0)</title>
<polygon fill="#16dbb6" stroke="#16dbb6" points="640.669,-441 395.669,-441 395.669,-405 640.669,-405 640.669,-441"/>
<text text-anchor="middle" x="518.169" y="-419.3" font-family="Times,serif" font-size="14.00" fill="#ffffff">Play #4: {{ target_group }} (0)</text>
<links><link target="edge_a6f23a6f-368c-4b27-8aba-9cdea126f7f1"/><link target="edge_41bbd657-3fdc-452c-a4c7-b279edf91f46"/><link target="edge_a771865c-493b-47f1-b8cc-6afd83ed2db0"/><link target="edge_0df96922-dea0-4672-b631-cfd3d9ef1c02"/><link target="edge_3fbde2ca-6068-47e1-8ac0-a63cef1c1024"/><link target="edge_18d81c87-f295-4b6a-aeb1-9b262aed4175"/><link target="edge_4a84b875-0c0a-4574-bbf8-b748a650c0bc"/><link target="edge_31cc048a-b427-4be1-a03a-09420fe4ab0d"/><link target="edge_afe1ac1c-68ba-4b23-a2d8-384373dfea77"/></links></g>
<!-- cassandra_backup_verification.yml&#45;&gt;Play #4: {{ target_group }} (0) -->
<g id="edge_bf46cb54-1c82-4c95-b9ad-3652731f7d6e" class="edge"><title>cassandra_backup_verification.yml-&gt;Play #4: {{ target_group }} (0)</title>
<path fill="none" stroke="#16dbb6" stroke-width="2" d="M215.994,-555.352C278.437,-527.911 398.698,-475.062 466.843,-445.116"/>
<polygon fill="#16dbb6" stroke="#16dbb6" stroke-width="2" points="468.355,-448.275 476.101,-441.047 465.538,-441.866 468.355,-448.275"/>
<text text-anchor="middle" x="372.669" y="-487.8" font-family="Times,serif" font-size="14.00" fill="#16dbb6">4</text>
</g>
<!-- Play #5: {{ target_group }} (0) -->
<g id="play_39cb158c-ee5e-4d9f-8c44-e08c0f821245" class="node"><title>Play #5: {{ target_group }} (0)</title>
<polygon fill="#499760" stroke="#499760" points="640.669,-279 395.669,-279 395.669,-243 640.669,-243 640.669,-279"/>
<text text-anchor="middle" x="518.169" y="-257.3" font-family="Times,serif" font-size="14.00" fill="#ffffff">Play #5: {{ target_group }} (0)</text>
<links><link target="edge_6fd54803-0ed8-42da-a947-4e95a1c22ba5"/></links></g>
<!-- cassandra_backup_verification.yml&#45;&gt;Play #5: {{ target_group }} (0) -->
<g id="edge_4ad8dae2-891e-4075-ad7c-9979b76b708c" class="edge"><title>cassandra_backup_verification.yml-&gt;Play #5: {{ target_group }} (0)</title>
<path fill="none" stroke="#499760" stroke-width="2" d="M195.661,-554.877C253.633,-501.887 422.938,-347.133 489.672,-286.134"/>
<polygon fill="#499760" stroke="#499760" stroke-width="2" points="492.268,-288.503 497.287,-279.173 487.545,-283.336 492.268,-288.503"/>
<text text-anchor="middle" x="372.669" y="-392.8" font-family="Times,serif" font-size="14.00" fill="#499760">5</text>
</g>
<!-- Play #6: {{ target_group }} (0) -->
<g id="play_54d1e558-b139-49f7-9613-b1061c5a1ab8" class="node"><title>Play #6: {{ target_group }} (0)</title>
<polygon fill="#179c2a" stroke="#179c2a" points="640.669,-90 395.669,-90 395.669,-54 640.669,-54 640.669,-90"/>
<text text-anchor="middle" x="518.169" y="-68.3" font-family="Times,serif" font-size="14.00" fill="#ffffff">Play #6: {{ target_group }} (0)</text>
<links><link target="edge_db095fcf-8e47-4640-8e69-8cc516a17594"/><link target="edge_ad932973-821b-4672-a368-a2112618b7eb"/></links></g>
<!-- cassandra_backup_verification.yml&#45;&gt;Play #6: {{ target_group }} (0) -->
<g id="edge_ccbb4948-3de2-4866-a110-2d757721aee5" class="edge"><title>cassandra_backup_verification.yml-&gt;Play #6: {{ target_group }} (0)</title>
<path fill="none" stroke="#179c2a" stroke-width="2" d="M187.085,-554.705C218.78,-503.374 311.956,-353.927 395.669,-234 429.842,-185.043 472.144,-129.749 496.752,-98.0699"/>
<polygon fill="#179c2a" stroke="#179c2a" stroke-width="2" points="499.525,-100.205 502.906,-90.1643 494.001,-95.905 499.525,-100.205"/>
<text text-anchor="middle" x="372.669" y="-273.8" font-family="Times,serif" font-size="14.00" fill="#179c2a">6</text>
</g>
<!-- [task] Check parameters -->
<g id="task_841b6dab-f50f-41dc-9425-1857cc254caa" class="node"><title>[task] Check parameters</title>
<polygon fill="none" stroke="black" points="1142.01,-1090.54 1142.01,-1105.46 1061.54,-1116 947.75,-1116 867.285,-1105.46 867.285,-1090.54 947.75,-1080 1061.54,-1080 1142.01,-1090.54"/>
<text text-anchor="middle" x="1004.65" y="-1094.3" font-family="Times,serif" font-size="14.00">[task] Check parameters</text>
</g>
<!-- Play #1: 127.0.0.1 (1)&#45;&gt;[task] Check parameters -->
<g id="edge_f322583d-d100-4b49-a777-5ae4b253fb55" class="edge"><title>Play #1: 127.0.0.1 (1)-&gt;[task] Check parameters</title>
<path fill="none" stroke="#b4c613" stroke-width="2" d="M604.947,-1075.78C674.868,-1079.68 775.188,-1085.27 857.702,-1089.87"/>
<polygon fill="#b4c613" stroke="#b4c613" stroke-width="2" points="857.751,-1093.37 867.931,-1090.44 858.141,-1086.39 857.751,-1093.37"/>
<text text-anchor="middle" x="663.669" y="-1081.8" font-family="Times,serif" font-size="14.00" fill="#b4c613">1</text>
<links><link target="task_841b6dab-f50f-41dc-9425-1857cc254caa"/></links></g>
<!-- [task] Start instance -->
<g id="task_358e54ce-8376-4cfa-a500-018a1423f715" class="node"><title>[task] Start instance</title>
<polygon fill="none" stroke="black" points="1119.89,-1036.54 1119.89,-1051.46 1052.38,-1062 956.911,-1062 889.402,-1051.46 889.402,-1036.54 956.911,-1026 1052.38,-1026 1119.89,-1036.54"/>
<text text-anchor="middle" x="1004.65" y="-1040.3" font-family="Times,serif" font-size="14.00">[task] Start instance</text>
</g>
<!-- Play #2: 127.0.0.1 (1)&#45;&gt;[task] Start instance -->
<g id="edge_9c9c9281-b6aa-4596-beef-3a41fbd1a5f4" class="edge"><title>Play #2: 127.0.0.1 (1)-&gt;[task] Start instance</title>
<path fill="none" stroke="#ae9827" stroke-width="2" d="M605.066,-1005.11C631.21,-1009.37 660.065,-1013.73 686.669,-1017 750.277,-1024.82 821.346,-1031.1 880.044,-1035.63"/>
<polygon fill="#ae9827" stroke="#ae9827" stroke-width="2" points="879.866,-1039.13 890.104,-1036.4 880.399,-1032.15 879.866,-1039.13"/>
<text text-anchor="middle" x="663.669" y="-1017.8" font-family="Times,serif" font-size="14.00" fill="#ae9827">1</text>
<links><link target="task_358e54ce-8376-4cfa-a500-018a1423f715"/></links></g>
<!-- [task] Pause for 5 minutes -->
<g id="task_aeb60256-3c06-4a1a-9aa4-d41a5cc70ed3" class="node"><title>[task] Pause for 5 minutes</title>
<polygon fill="none" stroke="black" points="1149.08,-982.544 1149.08,-997.456 1064.47,-1008 944.822,-1008 860.215,-997.456 860.215,-982.544 944.822,-972 1064.47,-972 1149.08,-982.544"/>
<text text-anchor="middle" x="1004.65" y="-986.3" font-family="Times,serif" font-size="14.00">[task] Pause for 5 minutes</text>
</g>
<!-- Play #2: 127.0.0.1 (1)&#45;&gt;[task] Pause for 5 minutes -->
<g id="edge_6dacabe9-0421-499a-acf9-5c2b0f9c28a4" class="edge"><title>Play #2: 127.0.0.1 (1)-&gt;[task] Pause for 5 minutes</title>
<path fill="none" stroke="#ae9827" stroke-width="2" d="M604.947,-990C672.712,-990 769.029,-990 850.019,-990"/>
<polygon fill="#ae9827" stroke="#ae9827" stroke-width="2" points="850.324,-993.5 860.323,-990 850.323,-986.5 850.324,-993.5"/>
<text text-anchor="middle" x="663.669" y="-993.8" font-family="Times,serif" font-size="14.00" fill="#ae9827">2</text>
<links><link target="task_aeb60256-3c06-4a1a-9aa4-d41a5cc70ed3"/></links></g>
<!-- [task] Check restore is enabled -->
<g id="task_92eafefe-f75a-42b1-b9f8-38186035dc0a" class="node"><title>[task] Check restore is enabled</title>
<polygon fill="none" stroke="black" points="1175.14,-928.544 1175.14,-943.456 1075.27,-954 934.028,-954 834.157,-943.456 834.157,-928.544 934.028,-918 1075.27,-918 1175.14,-928.544"/>
<text text-anchor="middle" x="1004.65" y="-932.3" font-family="Times,serif" font-size="14.00">[task] Check restore is enabled</text>
</g>
<!-- Play #3: {{ target_group }} (0)&#45;&gt;[task] Check restore is enabled -->
<g id="edge_ec3a7567-4123-40b3-a53d-cfcbca697df2" class="edge"><title>Play #3: {{ target_group }} (0)-&gt;[task] Check restore is enabled</title>
<path fill="none" stroke="#24e2c8" stroke-width="2" d="M534.988,-792.466C562.353,-822.943 621.852,-882.985 686.669,-909 729.407,-926.153 777.932,-934.997 823.941,-939.124"/>
<polygon fill="#24e2c8" stroke="#24e2c8" stroke-width="2" points="823.77,-942.622 834.024,-939.958 824.347,-935.646 823.77,-942.622"/>
<text text-anchor="middle" x="663.669" y="-902.8" font-family="Times,serif" font-size="14.00" fill="#24e2c8">1</text>
<links><link target="task_92eafefe-f75a-42b1-b9f8-38186035dc0a"/></links></g>
<!-- [task] Detect source node -->
<g id="task_acfdb63d-8ef6-4d35-9b75-11e786b84617" class="node"><title>[task] Detect source node</title>
<polygon fill="none" stroke="black" points="1146.86,-874.544 1146.86,-889.456 1063.55,-900 945.742,-900 862.437,-889.456 862.437,-874.544 945.742,-864 1063.55,-864 1146.86,-874.544"/>
<text text-anchor="middle" x="1004.65" y="-878.3" font-family="Times,serif" font-size="14.00">[task] Detect source node</text>
</g>
<!-- Play #3: {{ target_group }} (0)&#45;&gt;[task] Detect source node -->
<g id="edge_9fd24c56-475e-40f3-92e7-fc7c11ba31e7" class="edge"><title>Play #3: {{ target_group }} (0)-&gt;[task] Detect source node</title>
<path fill="none" stroke="#24e2c8" stroke-width="2" d="M548.133,-792.084C580.544,-811.328 635.27,-840.902 686.669,-855 739.584,-869.514 799.167,-876.829 852.273,-880.347"/>
<polygon fill="#24e2c8" stroke="#24e2c8" stroke-width="2" points="852.259,-883.853 862.457,-880.981 852.694,-876.866 852.259,-883.853"/>
<text text-anchor="middle" x="663.669" y="-852.8" font-family="Times,serif" font-size="14.00" fill="#24e2c8">2</text>
<links><link target="task_acfdb63d-8ef6-4d35-9b75-11e786b84617"/></links></g>
<!-- [task] Stop cassandra -->
<g id="task_64cfa98c-2062-4f39-a860-6b9998d644f0" class="node"><title>[task] Stop cassandra</title>
<polygon fill="none" stroke="black" points="1125.65,-820.544 1125.65,-835.456 1054.77,-846 954.527,-846 883.646,-835.456 883.646,-820.544 954.527,-810 1054.77,-810 1125.65,-820.544"/>
<text text-anchor="middle" x="1004.65" y="-824.3" font-family="Times,serif" font-size="14.00">[task] Stop cassandra</text>
</g>
<!-- Play #3: {{ target_group }} (0)&#45;&gt;[task] Stop cassandra -->
<g id="edge_603f2b45-f1a4-4db8-88cb-92be66394204" class="edge"><title>Play #3: {{ target_group }} (0)-&gt;[task] Stop cassandra</title>
<path fill="none" stroke="#24e2c8" stroke-width="2" d="M623.538,-792.061C644.408,-795.323 666.205,-798.483 686.669,-801 748.853,-808.649 818.168,-814.821 876.083,-819.323"/>
<polygon fill="#24e2c8" stroke="#24e2c8" stroke-width="2" points="876.149,-822.838 886.388,-820.116 876.686,-815.859 876.149,-822.838"/>
<text text-anchor="middle" x="663.669" y="-801.8" font-family="Times,serif" font-size="14.00" fill="#24e2c8">3</text>
<links><link target="task_64cfa98c-2062-4f39-a860-6b9998d644f0"/></links></g>
<!-- [task] Clear previous cluster state -->
<g id="task_e16ada81-45a4-4d3f-b041-6b71f2fc73ab" class="node"><title>[task] Clear previous cluster state</title>
<polygon fill="none" stroke="black" points="1189.68,-766.544 1189.68,-781.456 1081.29,-792 928.003,-792 819.611,-781.456 819.611,-766.544 928.003,-756 1081.29,-756 1189.68,-766.544"/>
<text text-anchor="middle" x="1004.65" y="-770.3" font-family="Times,serif" font-size="14.00">[task] Clear previous cluster state</text>
</g>
<!-- Play #3: {{ target_group }} (0)&#45;&gt;[task] Clear previous cluster state -->
<g id="edge_8e7d6a4e-5ba6-40a2-a1fe-3748196b44e5" class="edge"><title>Play #3: {{ target_group }} (0)-&gt;[task] Clear previous cluster state</title>
<path fill="none" stroke="#24e2c8" stroke-width="2" d="M640.798,-774C691.831,-774 752.453,-774 809.39,-774"/>
<polygon fill="#24e2c8" stroke="#24e2c8" stroke-width="2" points="809.603,-777.5 819.603,-774 809.603,-770.5 809.603,-777.5"/>
<text text-anchor="middle" x="663.669" y="-777.8" font-family="Times,serif" font-size="14.00" fill="#24e2c8">4</text>
<links><link target="task_e16ada81-45a4-4d3f-b041-6b71f2fc73ab"/></links></g>
<!-- [task] Adjust cluster_name in cassandra.yaml -->
<g id="task_686c7f41-d2c0-4b0a-a421-4e12cbdfd761" class="node"><title>[task] Adjust cluster_name in cassandra.yaml</title>
<polygon fill="none" stroke="black" points="1246.65,-712.544 1246.65,-727.456 1104.89,-738 904.407,-738 762.645,-727.456 762.645,-712.544 904.407,-702 1104.89,-702 1246.65,-712.544"/>
<text text-anchor="middle" x="1004.65" y="-716.3" font-family="Times,serif" font-size="14.00">[task] Adjust cluster_name in cassandra.yaml</text>
</g>
<!-- Play #3: {{ target_group }} (0)&#45;&gt;[task] Adjust cluster_name in cassandra.yaml -->
<g id="edge_7e395862-023f-4555-a752-5ee4662112dc" class="edge"><title>Play #3: {{ target_group }} (0)-&gt;[task] Adjust cluster_name in cassandra.yaml</title>
<path fill="none" stroke="#24e2c8" stroke-width="2" d="M623.538,-755.939C644.408,-752.677 666.205,-749.517 686.669,-747 729.515,-741.729 775.746,-737.16 819.301,-733.356"/>
<polygon fill="#24e2c8" stroke="#24e2c8" stroke-width="2" points="819.766,-736.829 829.428,-732.481 819.164,-729.855 819.766,-736.829"/>
<text text-anchor="middle" x="663.669" y="-753.8" font-family="Times,serif" font-size="14.00" fill="#24e2c8">5</text>
<links><link target="task_686c7f41-d2c0-4b0a-a421-4e12cbdfd761"/></links></g>
<!-- [task] Disable cassandra.load_ring_state in cassandra&#45;env.sh -->
<g id="task_8e3f7679-5d50-4922-90c2-c65dab87f7b4" class="node"><title>[task] Disable cassandra.load_ring_state in cassandra-env.sh</title>
<polygon fill="none" stroke="black" points="1322.6,-658.544 1322.6,-673.456 1136.35,-684 872.945,-684 686.69,-673.456 686.69,-658.544 872.945,-648 1136.35,-648 1322.6,-658.544"/>
<text text-anchor="middle" x="1004.65" y="-662.3" font-family="Times,serif" font-size="14.00">[task] Disable cassandra.load_ring_state in cassandra-env.sh</text>
</g>
<!-- Play #3: {{ target_group }} (0)&#45;&gt;[task] Disable cassandra.load_ring_state in cassandra&#45;env.sh -->
<g id="edge_abbf9b69-36d4-4956-975e-c201d04be0fa" class="edge"><title>Play #3: {{ target_group }} (0)-&gt;[task] Disable cassandra.load_ring_state in cassandra-env.sh</title>
<path fill="none" stroke="#24e2c8" stroke-width="2" d="M548.133,-755.916C580.544,-736.672 635.27,-707.098 686.669,-693 706.992,-687.426 728.299,-682.913 749.844,-679.27"/>
<polygon fill="#24e2c8" stroke="#24e2c8" stroke-width="2" points="750.45,-682.717 759.758,-677.656 749.325,-675.808 750.45,-682.717"/>
<text text-anchor="middle" x="663.669" y="-703.8" font-family="Times,serif" font-size="14.00" fill="#24e2c8">6</text>
<links><link target="task_8e3f7679-5d50-4922-90c2-c65dab87f7b4"/></links></g>
<!-- [task] Identify sstable snapshots to restore -->
<g id="task_253a3b3d-efb5-4818-a990-367c6d8cf973" class="node"><title>[task] Identify sstable snapshots to restore</title>
<polygon fill="none" stroke="black" points="1233.82,-604.544 1233.82,-619.456 1099.58,-630 909.719,-630 775.47,-619.456 775.47,-604.544 909.719,-594 1099.58,-594 1233.82,-604.544"/>
<text text-anchor="middle" x="1004.65" y="-608.3" font-family="Times,serif" font-size="14.00">[task] Identify sstable snapshots to restore</text>
</g>
<!-- Play #4: {{ target_group }} (0)&#45;&gt;[task] Identify sstable snapshots to restore -->
<g id="edge_a6f23a6f-368c-4b27-8aba-9cdea126f7f1" class="edge"><title>Play #4: {{ target_group }} (0)-&gt;[task] Identify sstable snapshots to restore</title>
<path fill="none" stroke="#16dbb6" stroke-width="2" d="M531.313,-441.186C555.872,-476.228 615.227,-552.508 686.669,-585 711.296,-596.2 738.104,-604.103 765.356,-609.56"/>
<polygon fill="#16dbb6" stroke="#16dbb6" stroke-width="2" points="764.938,-613.043 775.414,-611.461 766.238,-606.164 764.938,-613.043"/>
<text text-anchor="middle" x="663.669" y="-576.8" font-family="Times,serif" font-size="14.00" fill="#16dbb6">1</text>
<links><link target="task_253a3b3d-efb5-4818-a990-367c6d8cf973"/></links></g>
<!-- [task] Create directories for restored sstables -->
<g id="task_f2939302-90e3-41e9-b5e2-99ef368f4d10" class="node"><title>[task] Create directories for restored sstables</title>
<polygon fill="none" stroke="black" points="1248.87,-550.544 1248.87,-565.456 1105.81,-576 903.487,-576 760.424,-565.456 760.424,-550.544 903.487,-540 1105.81,-540 1248.87,-550.544"/>
<text text-anchor="middle" x="1004.65" y="-554.3" font-family="Times,serif" font-size="14.00">[task] Create directories for restored sstables</text>
</g>
<!-- Play #4: {{ target_group }} (0)&#45;&gt;[task] Create directories for restored sstables -->
<g id="edge_41bbd657-3fdc-452c-a4c7-b279edf91f46" class="edge"><title>Play #4: {{ target_group }} (0)-&gt;[task] Create directories for restored sstables</title>
<path fill="none" stroke="#16dbb6" stroke-width="2" d="M539.605,-441.006C569.516,-466.166 628.052,-510.999 686.669,-531 708.28,-538.374 731.178,-544.071 754.383,-548.439"/>
<polygon fill="#16dbb6" stroke="#16dbb6" stroke-width="2" points="753.883,-551.905 764.345,-550.231 755.122,-545.016 753.883,-551.905"/>
<text text-anchor="middle" x="663.669" y="-526.8" font-family="Times,serif" font-size="14.00" fill="#16dbb6">2</text>
<links><link target="task_f2939302-90e3-41e9-b5e2-99ef368f4d10"/></links></g>
<!-- [task] Restore sstables -->
<g id="task_c1617da9-0ab9-4893-b2ab-b7a3cafdae6d" class="node"><title>[task] Restore sstables</title>
<polygon fill="none" stroke="black" points="1131.81,-496.544 1131.81,-511.456 1057.32,-522 951.974,-522 877.483,-511.456 877.483,-496.544 951.974,-486 1057.32,-486 1131.81,-496.544"/>
<text text-anchor="middle" x="1004.65" y="-500.3" font-family="Times,serif" font-size="14.00">[task] Restore sstables</text>
</g>
<!-- Play #4: {{ target_group }} (0)&#45;&gt;[task] Restore sstables -->
<g id="edge_a771865c-493b-47f1-b8cc-6afd83ed2db0" class="edge"><title>Play #4: {{ target_group }} (0)-&gt;[task] Restore sstables</title>
<path fill="none" stroke="#16dbb6" stroke-width="2" d="M565.345,-441.02C598.57,-453.209 644.733,-468.568 686.669,-477 745.283,-488.785 811.004,-495.431 867.341,-499.177"/>
<polygon fill="#16dbb6" stroke="#16dbb6" stroke-width="2" points="867.18,-502.674 877.384,-499.821 867.628,-495.688 867.18,-502.674"/>
<text text-anchor="middle" x="663.669" y="-475.8" font-family="Times,serif" font-size="14.00" fill="#16dbb6">3</text>
<links><link target="task_c1617da9-0ab9-4893-b2ab-b7a3cafdae6d"/></links></g>
<!-- [task] Find location of peers cf -->
<g id="task_2c74effd-d193-4514-9642-287c4497ac56" class="node"><title>[task] Find location of peers cf</title>
<polygon fill="none" stroke="black" points="1170.7,-442.544 1170.7,-457.456 1073.43,-468 935.868,-468 838.599,-457.456 838.599,-442.544 935.868,-432 1073.43,-432 1170.7,-442.544"/>
<text text-anchor="middle" x="1004.65" y="-446.3" font-family="Times,serif" font-size="14.00">[task] Find location of peers cf</text>
</g>
<!-- Play #4: {{ target_group }} (0)&#45;&gt;[task] Find location of peers cf -->
<g id="edge_0df96922-dea0-4672-b631-cfd3d9ef1c02" class="edge"><title>Play #4: {{ target_group }} (0)-&gt;[task] Find location of peers cf</title>
<path fill="none" stroke="#16dbb6" stroke-width="2" d="M640.798,-429.778C700.662,-433.115 773.72,-437.186 838.548,-440.799"/>
<polygon fill="#16dbb6" stroke="#16dbb6" stroke-width="2" points="838.7,-444.313 848.879,-441.375 839.089,-437.324 838.7,-444.313"/>
<text text-anchor="middle" x="663.669" y="-433.8" font-family="Times,serif" font-size="14.00" fill="#16dbb6">4</text>
<links><link target="task_2c74effd-d193-4514-9642-287c4497ac56"/></links></g>
<!-- [task] Clean peers -->
<g id="task_b32dad85-cc14-42ae-b7db-7ad2ab555937" class="node"><title>[task] Clean peers</title>
<polygon fill="none" stroke="black" points="1108.88,-388.544 1108.88,-403.456 1047.82,-414 961.472,-414 900.414,-403.456 900.414,-388.544 961.472,-378 1047.82,-378 1108.88,-388.544"/>
<text text-anchor="middle" x="1004.65" y="-392.3" font-family="Times,serif" font-size="14.00">[task] Clean peers</text>
</g>
<!-- Play #4: {{ target_group }} (0)&#45;&gt;[task] Clean peers -->
<g id="edge_3fbde2ca-6068-47e1-8ac0-a63cef1c1024" class="edge"><title>Play #4: {{ target_group }} (0)-&gt;[task] Clean peers</title>
<path fill="none" stroke="#16dbb6" stroke-width="2" d="M640.877,-412.225C646.891,-411.788 652.847,-411.377 658.669,-411 735.772,-406.01 822.679,-402.242 889.976,-399.731"/>
<polygon fill="#16dbb6" stroke="#16dbb6" stroke-width="2" points="890.317,-403.221 900.181,-399.354 890.059,-396.226 890.317,-403.221"/>
<text text-anchor="middle" x="663.669" y="-414.8" font-family="Times,serif" font-size="14.00" fill="#16dbb6">5</text>
<links><link target="task_b32dad85-cc14-42ae-b7db-7ad2ab555937"/></links></g>
<!-- [task] Find commitlogs to restore -->
<g id="task_2ec66334-2e8b-4e43-b77d-d82a1e8cad37" class="node"><title>[task] Find commitlogs to restore</title>
<polygon fill="none" stroke="black" points="1185.24,-334.544 1185.24,-349.456 1079.45,-360 929.843,-360 824.052,-349.456 824.052,-334.544 929.843,-324 1079.45,-324 1185.24,-334.544"/>
<text text-anchor="middle" x="1004.65" y="-338.3" font-family="Times,serif" font-size="14.00">[task] Find commitlogs to restore</text>
</g>
<!-- Play #4: {{ target_group }} (0)&#45;&gt;[task] Find commitlogs to restore -->
<g id="edge_18d81c87-f295-4b6a-aeb1-9b262aed4175" class="edge"><title>Play #4: {{ target_group }} (0)-&gt;[task] Find commitlogs to restore</title>
<path fill="none" stroke="#16dbb6" stroke-width="2" d="M565.345,-404.98C598.57,-392.791 644.733,-377.432 686.669,-369 728.74,-360.541 774.472,-354.73 817.767,-350.738"/>
<polygon fill="#16dbb6" stroke="#16dbb6" stroke-width="2" points="818.189,-354.214 827.838,-349.838 817.566,-347.242 818.189,-354.214"/>
<text text-anchor="middle" x="663.669" y="-377.8" font-family="Times,serif" font-size="14.00" fill="#16dbb6">6</text>
<links><link target="task_2ec66334-2e8b-4e43-b77d-d82a1e8cad37"/></links></g>
<!-- [task] Restore commitlogs -->
<g id="task_68444770-de5a-42be-b014-388c074147ec" class="node"><title>[task] Restore commitlogs</title>
<polygon fill="none" stroke="black" points="1149.49,-280.544 1149.49,-295.456 1064.64,-306 944.653,-306 859.809,-295.456 859.809,-280.544 944.653,-270 1064.64,-270 1149.49,-280.544"/>
<text text-anchor="middle" x="1004.65" y="-284.3" font-family="Times,serif" font-size="14.00">[task] Restore commitlogs</text>
</g>
<!-- Play #4: {{ target_group }} (0)&#45;&gt;[task] Restore commitlogs -->
<g id="edge_4a84b875-0c0a-4574-bbf8-b748a650c0bc" class="edge"><title>Play #4: {{ target_group }} (0)-&gt;[task] Restore commitlogs</title>
<path fill="none" stroke="#16dbb6" stroke-width="2" d="M539.605,-404.994C569.516,-379.834 628.052,-335.001 686.669,-315 738.108,-297.448 796.839,-289.4 849.655,-286.144"/>
<polygon fill="#16dbb6" stroke="#16dbb6" stroke-width="2" points="850.002,-289.63 859.79,-285.573 849.609,-282.641 850.002,-289.63"/>
<text text-anchor="middle" x="663.669" y="-327.8" font-family="Times,serif" font-size="14.00" fill="#16dbb6">7</text>
<links><link target="task_68444770-de5a-42be-b014-388c074147ec"/></links></g>
<!-- [task] Start cassandra -->
<g id="task_78292d62-cef1-4e78-ae13-8d437b0196aa" class="node"><title>[task] Start cassandra</title>
<polygon fill="none" stroke="black" points="1128.28,-226.544 1128.28,-241.456 1055.86,-252 953.439,-252 881.018,-241.456 881.018,-226.544 953.439,-216 1055.86,-216 1128.28,-226.544"/>
<text text-anchor="middle" x="1004.65" y="-230.3" font-family="Times,serif" font-size="14.00">[task] Start cassandra</text>
</g>
<!-- Play #4: {{ target_group }} (0)&#45;&gt;[task] Start cassandra -->
<g id="edge_31cc048a-b427-4be1-a03a-09420fe4ab0d" class="edge"><title>Play #4: {{ target_group }} (0)-&gt;[task] Start cassandra</title>
<path fill="none" stroke="#16dbb6" stroke-width="2" d="M531.313,-404.814C555.872,-369.772 615.227,-293.492 686.669,-261 745.719,-234.144 817.31,-226.248 877.503,-225.567"/>
<polygon fill="#16dbb6" stroke="#16dbb6" stroke-width="2" points="877.847,-229.065 887.831,-225.519 877.814,-222.065 877.847,-229.065"/>
<text text-anchor="middle" x="663.669" y="-278.8" font-family="Times,serif" font-size="14.00" fill="#16dbb6">8</text>
<links><link target="task_78292d62-cef1-4e78-ae13-8d437b0196aa"/></links></g>
<!-- [task] Wait until cassandra is up (max 2h) -->
<g id="task_70aefe1c-6458-4f99-8a9c-68c6c020ec88" class="node"><title>[task] Wait until cassandra is up (max 2h)</title>
<polygon fill="none" stroke="black" points="1226.76,-172.544 1226.76,-187.456 1096.65,-198 912.648,-198 782.54,-187.456 782.54,-172.544 912.648,-162 1096.65,-162 1226.76,-172.544"/>
<text text-anchor="middle" x="1004.65" y="-176.3" font-family="Times,serif" font-size="14.00">[task] Wait until cassandra is up (max 2h)</text>
</g>
<!-- Play #4: {{ target_group }} (0)&#45;&gt;[task] Wait until cassandra is up (max 2h) -->
<g id="edge_afe1ac1c-68ba-4b23-a2d8-384373dfea77" class="edge"><title>Play #4: {{ target_group }} (0)-&gt;[task] Wait until cassandra is up (max 2h)</title>
<path fill="none" stroke="#16dbb6" stroke-width="2" d="M538.552,-404.648C564.063,-379.828 609.334,-333.42 640.669,-288 664.179,-253.923 651.472,-228.798 686.669,-207 738.713,-174.769 805.11,-165.386 863.676,-165.109"/>
<polygon fill="#16dbb6" stroke="#16dbb6" stroke-width="2" points="863.743,-168.609 873.757,-165.149 863.771,-161.609 863.743,-168.609"/>
<text text-anchor="middle" x="663.669" y="-247.8" font-family="Times,serif" font-size="14.00" fill="#16dbb6">9</text>
<links><link target="task_70aefe1c-6458-4f99-8a9c-68c6c020ec88"/></links></g>
<!-- [task] Check cassandra status -->
<g id="task_ba6ef60f-bcd7-420d-9d65-c95131474bb8" class="node"><title>[task] Check cassandra status</title>
<polygon fill="none" stroke="black" points="1169.38,-118.544 1169.38,-133.456 1072.88,-144 936.412,-144 839.913,-133.456 839.913,-118.544 936.412,-108 1072.88,-108 1169.38,-118.544"/>
<text text-anchor="middle" x="1004.65" y="-122.3" font-family="Times,serif" font-size="14.00">[task] Check cassandra status</text>
</g>
<!-- Play #5: {{ target_group }} (0)&#45;&gt;[task] Check cassandra status -->
<g id="edge_6fd54803-0ed8-42da-a947-4e95a1c22ba5" class="edge"><title>Play #5: {{ target_group }} (0)-&gt;[task] Check cassandra status</title>
<path fill="none" stroke="#499760" stroke-width="2" d="M533.556,-242.882C556.587,-215.445 604.668,-164.298 658.669,-143 727.115,-116.005 809.201,-110.982 876.127,-113.07"/>
<polygon fill="#499760" stroke="#499760" stroke-width="2" points="876.187,-116.575 886.31,-113.446 876.446,-109.58 876.187,-116.575"/>
<text text-anchor="middle" x="663.669" y="-146.8" font-family="Times,serif" font-size="14.00" fill="#499760">1</text>
<links><link target="task_ba6ef60f-bcd7-420d-9d65-c95131474bb8"/></links></g>
<!-- [task] Shutdown servers -->
<g id="task_7004a6e1-023e-431d-bfb9-60e158b53e02" class="node"><title>[task] Shutdown servers</title>
<polygon fill="none" stroke="black" points="1138.88,-64.5442 1138.88,-79.4558 1060.25,-90 949.046,-90 870.413,-79.4558 870.413,-64.5442 949.046,-54 1060.25,-54 1138.88,-64.5442"/>
<text text-anchor="middle" x="1004.65" y="-68.3" font-family="Times,serif" font-size="14.00">[task] Shutdown servers</text>
</g>
<!-- Play #6: {{ target_group }} (0)&#45;&gt;[task] Shutdown servers -->
<g id="edge_db095fcf-8e47-4640-8e69-8cc516a17594" class="edge"><title>Play #6: {{ target_group }} (0)-&gt;[task] Shutdown servers</title>
<path fill="none" stroke="#179c2a" stroke-width="2" d="M640.798,-72C707.32,-72 790.135,-72 859.844,-72"/>
<polygon fill="#179c2a" stroke="#179c2a" stroke-width="2" points="860.031,-75.5001 870.031,-72 860.031,-68.5001 860.031,-75.5001"/>
<text text-anchor="middle" x="663.669" y="-75.8" font-family="Times,serif" font-size="14.00" fill="#179c2a">1</text>
<links><link target="task_7004a6e1-023e-431d-bfb9-60e158b53e02"/></links></g>
<!-- [task] wait go down -->
<g id="task_abaa1184-5553-4343-a5bd-7f5f3415d61d" class="node"><title>[task] wait go down</title>
<polygon fill="none" stroke="black" points="1115.95,-10.5442 1115.95,-25.4558 1050.75,-36 958.544,-36 893.344,-25.4558 893.344,-10.5442 958.544,-3.55271e-15 1050.75,-0 1115.95,-10.5442"/>
<text text-anchor="middle" x="1004.65" y="-14.3" font-family="Times,serif" font-size="14.00">[task] wait go down</text>
</g>
<!-- Play #6: {{ target_group }} (0)&#45;&gt;[task] wait go down -->
<g id="edge_ad932973-821b-4672-a368-a2112618b7eb" class="edge"><title>Play #6: {{ target_group }} (0)-&gt;[task] wait go down</title>
<path fill="none" stroke="#179c2a" stroke-width="2" d="M623.538,-53.9389C644.408,-50.6768 666.205,-47.5174 686.669,-45 751.443,-37.032 823.954,-30.6673 883.26,-26.1233"/>
<polygon fill="#179c2a" stroke="#179c2a" stroke-width="2" points="883.709,-29.5994 893.416,-25.353 883.18,-22.6194 883.709,-29.5994"/>
<text text-anchor="middle" x="663.669" y="-51.8" font-family="Times,serif" font-size="14.00" fill="#179c2a">2</text>
<links><link target="task_abaa1184-5553-4343-a5bd-7f5f3415d61d"/></links></g>
</g>
</svg>