<?xml version='1.0' encoding='UTF-8'?>
<!DOCTYPE svg PUBLIC "-//W3C//DTD SVG 1.1//EN" "http://www.w3.org/Graphics/SVG/1.1/DTD/svg11.dtd">
<!-- Generated by graphviz version 2.38.0 (20140413.2041)
 --><!-- Title: %3 Pages: 1 --><svg xmlns="http://www.w3.org/2000/svg" xmlns:xlink="http://www.w3.org/1999/xlink" width="1214pt" height="854pt" viewBox="0.00 0.00 1213.64 854.00" id="svg">
<script href="https://ajax.googleapis.com/ajax/libs/jquery/3.2.1/jquery.min.js" id="jquery" type="text/javascript"/><script id="my_javascript" type="text/javascript"><![CDATA[const HOVER_CLASS = "my_hover";

var selectedElement = null;

function addClass(rootElement) {
    $(rootElement).find('link').each(function (index, element) {
        var target = $(element).attr('target');
        var currentElement = $('#' + target);
        currentElement.addClass(HOVER_CLASS);

        addClass(currentElement);
    })
}

function removeClass(rootElement, hover) {
    $(rootElement).find('link').each(function (index, element) {
        if ($(rootElement).attr('id') !== $(selectedElement).attr('id') || !hover) {
            var target = $(element).attr('target');
            var currentElement = $('#' + target);
            currentElement.removeClass(HOVER_CLASS);

            removeClass(currentElement);
        }

    })
}

function hoverIn(event) {
    addClass(event.currentTarget);
}

function hoverOut(event) {
    removeClass(event.currentTarget, true);
}

function clickOnElement(event) {
    var newElement = event.currentTarget;

    if ($(newElement).attr('id') === $(selectedElement).attr('id')) {
        removeClass(selectedElement, false);
    } else {
        removeClass(selectedElement);
        addClass(newElement)
    }

    selectedElement = newElement;
}


$("#svg").ready(function () {

    $("g[id^=play_]").hover(hoverIn, hoverOut);
    $("g[id^=role_]").hover(hoverIn, hoverOut);

    $("g[id^=play_]").click(clickOnElement);
    $("g[id^=role_]").click(clickOnElement);

});
]]></script><style id="my_css" type="text/css"><![CDATA[.node:hover, .edge:hover, path:hover, path + polygon:hover {
    cursor: pointer;
    stroke-width: 3;
    font-weight: bolder;
}

.my_hover {
    cursor: pointer;
    stroke-width: 3;
    font-weight: bolder;
}

/**
Each element whose id ends with "not_tagged"
 */
[id$=not_tagged] {
    opacity: 0.3;
}]]></style><g id="graph0" class="graph" transform="scale(1 1) rotate(0) translate(4 850)">
<polygon fill="white" stroke="none" points="-4,4 -4,-850 1209.64,-850 1209.64,4 -4,4"/>
<!-- cassandra_restore.yml -->
<g id="root_node" class="node"><title>cassandra_restore.yml</title>
<ellipse fill="none" stroke="black" stroke-dasharray="1,5" cx="116.34" cy="-639" rx="116.18" ry="18"/>
<text text-anchor="middle" x="116.34" y="-635.3" font-family="Times,serif" font-size="14.00">cassandra_restore.yml</text>
</g>
<!-- Play #1: 127.0.0.1 (1) -->
<g id="play_ae3ee5ff-2a38-4a1b-8aab-3c94a72afae6" class="node"><title>Play #1: 127.0.0.1 (1)</title>
<g id="a_play_ae3ee5ff-2a38-4a1b-8aab-3c94a72afae6"><a xlink:title="127.0.0.1">
<polygon fill="#999a41" stroke="#999a41" points="487.679,-792 314.679,-792 314.679,-756 487.679,-756 487.679,-792"/>
<text text-anchor="middle" x="401.179" y="-770.3" font-family="Times,serif" font-size="14.00" fill="#ffffff">Play #1: 127.0.0.1 (1)</text>
</a>
</g>
<links><link target="edge_5608e1eb-c3be-4f70-9bcf-7e04e2dc03ae"/></links></g>
<!-- cassandra_restore.yml&#45;&gt;Play #1: 127.0.0.1 (1) -->
<g id="edge_19db159f-845a-4219-878d-ade125ed3969" class="edge"><title>cassandra_restore.yml-&gt;Play #1: 127.0.0.1 (1)</title>
<path fill="none" stroke="#999a41" stroke-width="2" d="M153.162,-656.098C203.994,-680.36 297.116,-724.808 353.362,-751.654"/>
<polygon fill="#999a41" stroke="#999a41" stroke-width="2" points="351.866,-754.818 362.399,-755.967 354.882,-748.501 351.866,-754.818"/>
<text text-anchor="middle" x="255.679" y="-709.8" font-family="Times,serif" font-size="14.00" fill="#999a41">1</text>
</g>
<!-- Play #2: {{ target_group }} (0) -->
<g id="play_7ae7e0f3-3e04-442b-a64f-64720d0e685e" class="node"><title>Play #2: {{ target_group }} (0)</title>
<polygon fill="#d01980" stroke="#d01980" points="523.679,-657 278.679,-657 278.679,-621 523.679,-621 523.679,-657"/>
<text text-anchor="middle" x="401.179" y="-635.3" font-family="Times,serif" font-size="14.00" fill="#ffffff">Play #2: {{ target_group }} (0)</text>
<links><link target="edge_1010a239-391e-4ee0-8545-f9e58230c1b0"/><link target="edge_a35eec59-bd24-471b-ad71-a60a2e9b4a61"/><link target="edge_a3c85643-703c-4658-a271-b518235e94ad"/><link target="edge_0728e742-0279-4c8f-8e14-d6580f07f647"/><link target="edge_5ae2909b-73dd-46d3-88a1-777d3baf7b1c"/><link target="edge_19460e3d-7c08-4b55-8b62-631b54b063f4"/></links></g>
<!-- cassandra_restore.yml&#45;&gt;Play #2: {{ target_group }} (0) -->
<g id="edge_9b743c13-e8b1-4625-9137-74c63c1feec2" class="edge"><title>cassandra_restore.yml-&gt;Play #2: {{ target_group }} (0)</title>
<path fill="none" stroke="#d01980" stroke-width="2" d="M232.789,-639C244.604,-639 256.668,-639 268.638,-639"/>
<polygon fill="#d01980" stroke="#d01980" stroke-width="2" points="268.663,-642.5 278.663,-639 268.663,-635.5 268.663,-642.5"/>
<text text-anchor="middle" x="255.679" y="-642.8" font-family="Times,serif" font-size="14.00" fill="#d01980">2</text>
</g>
<!-- Play #3: {{ target_group }} (0) -->
<g id="play_8b119e82-d8ee-4c34-b077-819d05b96160" class="node"><title>Play #3: {{ target_group }} (0)</title>
<polygon fill="#dc4092" stroke="#dc4092" points="523.679,-279 278.679,-279 278.679,-243 523.679,-243 523.679,-279"/>
<text text-anchor="middle" x="401.179" y="-257.3" font-family="Times,serif" font-size="14.00" fill="#ffffff">Play #3: {{ target_group }} (0)</text>
<links><link target="edge_c9b97df6-652e-416c-99c3-06efc6032ad8"/><link target="edge_955174f7-b6c3-4a42-a002-bdbfb03bab74"/><link target="edge_301e9233-8633-4e69-a38e-eab20d1fe127"/><link target="edge_5352e1a7-826a-42b7-8bdc-9e9248398569"/><link target="edge_fe42b743-07f6-4fb5-a87f-837e9dc93f40"/><link target="edge_6f66b8f3-5f19-45f0-97bb-4db7a0d8cfc5"/><link target="edge_01cd4470-c741-427d-aeb0-ad0f148c9e98"/><link target="edge_e6ef52d6-ec1b-4b95-9481-31b8e315dfa6"/><link target="edge_44dc5f1c-a86d-45a3-9974-049134632f95"/></links></g>
<!-- cassandra_restore.yml&#45;&gt;Play #3: {{ target_group }} (0) -->
<g id="edge_32e529de-1aca-408e-86bf-e07a5cc08a35" class="edge"><title>cassandra_restore.yml-&gt;Play #3: {{ target_group }} (0)</title>
<path fill="none" stroke="#dc4092" stroke-width="2" d="M130.791,-621.023C176.576,-559.833 326.508,-359.458 380.544,-287.241"/>
<polygon fill="#dc4092" stroke="#dc4092" stroke-width="2" points="383.457,-289.191 386.645,-279.087 377.852,-284.997 383.457,-289.191"/>
<text text-anchor="middle" x="255.679" y="-453.8" font-family="Times,serif" font-size="14.00" fill="#dc4092">3</text>
</g>
<!-- [task] Check parameters -->
<g id="task_e5a8dab4-68f6-4503-9768-db2bfbb0ddf1" class="node"><title>[task] Check parameters</title>
<polygon fill="none" stroke="black" points="1025.02,-820.544 1025.02,-835.456 944.555,-846 830.761,-846 750.296,-835.456 750.296,-820.544 830.761,-810 944.555,-810 1025.02,-820.544"/>
<text text-anchor="middle" x="887.658" y="-824.3" font-family="Times,serif" font-size="14.00">[task] Check parameters</text>
</g>
<!-- Play #1: 127.0.0.1 (1)&#45;&gt;[task] Check parameters -->
<g id="edge_5608e1eb-c3be-4f70-9bcf-7e04e2dc03ae" class="edge"><title>Play #1: 127.0.0.1 (1)-&gt;[task] Check parameters</title>
<path fill="none" stroke="#999a41" stroke-width="2" d="M488.076,-789.112C514.221,-793.37 543.076,-797.727 569.679,-801 628.251,-808.205 693.149,-814.099 748.889,-818.522"/>
<polygon fill="#999a41" stroke="#999a41" stroke-width="2" points="748.944,-822.036 759.187,-819.33 749.492,-815.058 748.944,-822.036"/>
<text text-anchor="middle" x="546.679" y="-801.8" font-family="Times,serif" font-size="14.00" fill="#999a41">1</text>
<links><link target="task_e5a8dab4-68f6-4503-9768-db2bfbb0ddf1"/></links></g>
<!-- [task] Check restore is enabled -->
<g id="task_1d8b20e3-f211-41dd-9ee2-d3f38b9710b4" class="node"><title>[task] Check restore is enabled</title>
<polygon fill="none" stroke="black" points="1058.15,-766.544 1058.15,-781.456 958.278,-792 817.038,-792 717.167,-781.456 717.167,-766.544 817.038,-756 958.278,-756 1058.15,-766.544"/>
<text text-anchor="middle" x="887.658" y="-770.3" font-family="Times,serif" font-size="14.00">[task] Check restore is enabled</text>
</g>
<!-- Play #2: {{ target_group }} (0)&#45;&gt;[task] Check restore is enabled -->
<g id="edge_1010a239-391e-4ee0-8545-f9e58230c1b0" class="edge"><title>Play #2: {{ target_group }} (0)-&gt;[task] Check restore is enabled</title>
<path fill="none" stroke="#d01980" stroke-width="2" d="M422.615,-657.006C452.526,-682.166 511.063,-726.999 569.679,-747 613.02,-761.789 661.539,-769.83 707.334,-773.944"/>
<polygon fill="#d01980" stroke="#d01980" stroke-width="2" points="707.109,-777.437 717.367,-774.787 707.695,-770.462 707.109,-777.437"/>
<text text-anchor="middle" x="546.679" y="-742.8" font-family="Times,serif" font-size="14.00" fill="#d01980">1</text>
<links><link target="task_1d8b20e3-f211-41dd-9ee2-d3f38b9710b4"/></links></g>
<!-- [task] Detect source node -->
<g id="task_eb371d36-718a-40fc-92a0-76442c1e51dc" class="node"><title>[task] Detect source node</title>
<polygon fill="none" stroke="black" points="1029.87,-712.544 1029.87,-727.456 946.564,-738 828.752,-738 745.447,-727.456 745.447,-712.544 828.752,-702 946.564,-702 1029.87,-712.544"/>
<text text-anchor="middle" x="887.658" y="-716.3" font-family="Times,serif" font-size="14.00">[task] Detect source node</text>
</g>
<!-- Play #2: {{ target_group }} (0)&#45;&gt;[task] Detect source node -->
<g id="edge_a35eec59-bd24-471b-ad71-a60a2e9b4a61" class="edge"><title>Play #2: {{ target_group }} (0)-&gt;[task] Detect source node</title>
<path fill="none" stroke="#d01980" stroke-width="2" d="M448.355,-657.02C481.58,-669.209 527.743,-684.568 569.679,-693 623.091,-703.739 682.404,-710.211 735.141,-714.11"/>
<polygon fill="#d01980" stroke="#d01980" stroke-width="2" points="735.028,-717.611 745.252,-714.832 735.527,-710.628 735.028,-717.611"/>
<text text-anchor="middle" x="546.679" y="-691.8" font-family="Times,serif" font-size="14.00" fill="#d01980">2</text>
<links><link target="task_eb371d36-718a-40fc-92a0-76442c1e51dc"/></links></g>
<!-- [task] Stop cassandra -->
<g id="task_c66ad097-9b1d-450c-beeb-f4c6105e34d4" class="node"><title>[task] Stop cassandra</title>
<polygon fill="none" stroke="black" points="1008.66,-658.544 1008.66,-673.456 937.778,-684 837.538,-684 766.657,-673.456 766.657,-658.544 837.538,-648 937.778,-648 1008.66,-658.544"/>
<text text-anchor="middle" x="887.658" y="-662.3" font-family="Times,serif" font-size="14.00">[task] Stop cassandra</text>
</g>
<!-- Play #2: {{ target_group }} (0)&#45;&gt;[task] Stop cassandra -->
<g id="edge_a3c85643-703c-4658-a271-b518235e94ad" class="edge"><title>Play #2: {{ target_group }} (0)-&gt;[task] Stop cassandra</title>
<path fill="none" stroke="#d01980" stroke-width="2" d="M523.808,-645.778C594.616,-649.725 683.883,-654.699 756.157,-658.727"/>
<polygon fill="#d01980" stroke="#d01980" stroke-width="2" points="756.059,-662.227 766.238,-659.289 756.449,-655.238 756.059,-662.227"/>
<text text-anchor="middle" x="546.679" y="-649.8" font-family="Times,serif" font-size="14.00" fill="#d01980">3</text>
<links><link target="task_c66ad097-9b1d-450c-beeb-f4c6105e34d4"/></links></g>
<!-- [task] Clear previous cluster state -->
<g id="task_90d6ba98-ecce-40f4-b215-7aab78c918b7" class="node"><title>[task] Clear previous cluster state</title>
<polygon fill="none" stroke="black" points="1072.7,-604.544 1072.7,-619.456 964.303,-630 811.013,-630 702.621,-619.456 702.621,-604.544 811.013,-594 964.303,-594 1072.7,-604.544"/>
<text text-anchor="middle" x="887.658" y="-608.3" font-family="Times,serif" font-size="14.00">[task] Clear previous cluster state</text>
</g>
<!-- Play #2: {{ target_group }} (0)&#45;&gt;[task] Clear previous cluster state -->
<g id="edge_0728e742-0279-4c8f-8e14-d6580f07f647" class="edge"><title>Play #2: {{ target_group }} (0)-&gt;[task] Clear previous cluster state</title>
<path fill="none" stroke="#d01980" stroke-width="2" d="M523.887,-628.225C529.901,-627.788 535.858,-627.377 541.679,-627 590.511,-623.84 643.276,-621.169 692.5,-618.998"/>
<polygon fill="#d01980" stroke="#d01980" stroke-width="2" points="692.784,-622.49 702.621,-618.557 692.478,-615.496 692.784,-622.49"/>
<text text-anchor="middle" x="546.679" y="-630.8" font-family="Times,serif" font-size="14.00" fill="#d01980">4</text>
<links><link target="task_90d6ba98-ecce-40f4-b215-7aab78c918b7"/></links></g>
<!-- [task] Adjust cluster_name in cassandra.yaml -->
<g id="task_2cd656ef-246b-4234-8c6c-e279db7080a1" class="node"><title>[task] Adjust cluster_name in cassandra.yaml</title>
<polygon fill="none" stroke="black" points="1129.66,-550.544 1129.66,-565.456 987.899,-576 787.417,-576 645.655,-565.456 645.655,-550.544 787.417,-540 987.899,-540 1129.66,-550.544"/>
<text text-anchor="middle" x="887.658" y="-554.3" font-family="Times,serif" font-size="14.00">[task] Adjust cluster_name in cassandra.yaml</text>
</g>
<!-- Play #2: {{ target_group }} (0)&#45;&gt;[task] Adjust cluster_name in cassandra.yaml -->
<g id="edge_5ae2909b-73dd-46d3-88a1-777d3baf7b1c" class="edge"><title>Play #2: {{ target_group }} (0)-&gt;[task] Adjust cluster_name in cassandra.yaml</title>
<path fill="none" stroke="#d01980" stroke-width="2" d="M448.355,-620.98C481.58,-608.791 527.743,-593.432 569.679,-585 603.068,-578.287 638.762,-573.241 673.715,-569.449"/>
<polygon fill="#d01980" stroke="#d01980" stroke-width="2" points="674.462,-572.89 684.041,-568.362 673.73,-565.928 674.462,-572.89"/>
<text text-anchor="middle" x="546.679" y="-593.8" font-family="Times,serif" font-size="14.00" fill="#d01980">5</text>
<links><link target="task_2cd656ef-246b-4234-8c6c-e279db7080a1"/></links></g>
<!-- [task] Disable cassandra.load_ring_state in cassandra&#45;env.sh -->
<g id="task_2b2caabd-9610-40bd-94af-5add692d167d" class="node"><title>[task] Disable cassandra.load_ring_state in cassandra-env.sh</title>
<polygon fill="none" stroke="black" points="1205.62,-496.544 1205.62,-511.456 1019.36,-522 755.956,-522 569.701,-511.456 569.701,-496.544 755.956,-486 1019.36,-486 1205.62,-496.544"/>
<text text-anchor="middle" x="887.658" y="-500.3" font-family="Times,serif" font-size="14.00">[task] Disable cassandra.load_ring_state in cassandra-env.sh</text>
</g>
<!-- Play #2: {{ target_group }} (0)&#45;&gt;[task] Disable cassandra.load_ring_state in cassandra&#45;env.sh -->
<g id="edge_19460e3d-7c08-4b55-8b62-631b54b063f4" class="edge"><title>Play #2: {{ target_group }} (0)-&gt;[task] Disable cassandra.load_ring_state in cassandra-env.sh</title>
<path fill="none" stroke="#d01980" stroke-width="2" d="M422.615,-620.994C452.526,-595.834 511.063,-551.001 569.679,-531 585.847,-525.483 602.734,-520.906 619.932,-517.12"/>
<polygon fill="#d01980" stroke="#d01980" stroke-width="2" points="621.026,-520.467 630.091,-514.982 619.584,-513.617 621.026,-520.467"/>
<text text-anchor="middle" x="546.679" y="-543.8" font-family="Times,serif" font-size="14.00" fill="#d01980">6</text>
<links><link target="task_2b2caabd-9610-40bd-94af-5add692d167d"/></links></g>
<!-- [task] Identify sstable snapshots to restore -->
<g id="task_4fb2fdce-8910-4d65-8ecb-80c6ff259c35" class="node"><title>[task] Identify sstable snapshots to restore</title>
<polygon fill="none" stroke="black" points="1116.84,-442.544 1116.84,-457.456 982.586,-468 792.73,-468 658.481,-457.456 658.481,-442.544 792.73,-432 982.586,-432 1116.84,-442.544"/>
<text text-anchor="middle" x="887.658" y="-446.3" font-family="Times,serif" font-size="14.00">[task] Identify sstable snapshots to restore</text>
</g>
<!-- Play #3: {{ target_group }} (0)&#45;&gt;[task] Identify sstable snapshots to restore -->
<g id="edge_c9b97df6-652e-416c-99c3-06efc6032ad8" class="edge"><title>Play #3: {{ target_group }} (0)-&gt;[task] Identify sstable snapshots to restore</title>
<path fill="none" stroke="#dc4092" stroke-width="2" d="M414.323,-279.186C438.883,-314.228 498.237,-390.508 569.679,-423 594.306,-434.2 621.114,-442.103 648.367,-447.56"/>
<polygon fill="#dc4092" stroke="#dc4092" stroke-width="2" points="647.948,-451.043 658.424,-449.461 649.248,-444.164 647.948,-451.043"/>
<text text-anchor="middle" x="546.679" y="-414.8" font-family="Times,serif" font-size="14.00" fill="#dc4092">1</text>
<links><link target="task_4fb2fdce-8910-4d65-8ecb-80c6ff259c35"/></links></g>
<!-- [task] Create directories for restored sstables -->
<g id="task_8f2a3ee7-4ec0-4aa3-bda8-298e4be49ea7" class="node"><title>[task] Create directories for restored sstables</title>
<polygon fill="none" stroke="black" points="1131.88,-388.544 1131.88,-403.456 988.819,-414 786.497,-414 643.434,-403.456 643.434,-388.544 786.497,-378 988.819,-378 1131.88,-388.544"/>
<text text-anchor="middle" x="887.658" y="-392.3" font-family="Times,serif" font-size="14.00">[task] Create directories for restored sstables</text>
</g>
<!-- Play #3: {{ target_group }} (0)&#45;&gt;[task] Create directories for restored sstables -->
<g id="edge_955174f7-b6c3-4a42-a002-bdbfb03bab74" class="edge"><title>Play #3: {{ target_group }} (0)-&gt;[task] Create directories for restored sstables</title>
<path fill="none" stroke="#dc4092" stroke-width="2" d="M422.615,-279.006C452.526,-304.166 511.063,-348.999 569.679,-369 591.29,-376.374 614.188,-382.071 637.394,-386.439"/>
<polygon fill="#dc4092" stroke="#dc4092" stroke-width="2" points="636.893,-389.905 647.355,-388.231 638.133,-383.016 636.893,-389.905"/>
<text text-anchor="middle" x="546.679" y="-364.8" font-family="Times,serif" font-size="14.00" fill="#dc4092">2</text>
<links><link target="task_8f2a3ee7-4ec0-4aa3-bda8-298e4be49ea7"/></links></g>
<!-- [task] Restore sstables -->
<g id="task_c77fd43e-2256-4a79-97f8-a6905125fe2d" class="node"><title>[task] Restore sstables</title>
<polygon fill="none" stroke="black" points="1014.82,-334.544 1014.82,-349.456 940.331,-360 834.985,-360 760.493,-349.456 760.493,-334.544 834.985,-324 940.331,-324 1014.82,-334.544"/>
<text text-anchor="middle" x="887.658" y="-338.3" font-family="Times,serif" font-size="14.00">[task] Restore sstables</text>
</g>
<!-- Play #3: {{ target_group }} (0)&#45;&gt;[task] Restore sstables -->
<g id="edge_301e9233-8633-4e69-a38e-eab20d1fe127" class="edge"><title>Play #3: {{ target_group }} (0)-&gt;[task] Restore sstables</title>
<path fill="none" stroke="#dc4092" stroke-width="2" d="M448.355,-279.02C481.58,-291.209 527.743,-306.568 569.679,-315 628.293,-326.785 694.014,-333.431 750.352,-337.177"/>
<polygon fill="#dc4092" stroke="#dc4092" stroke-width="2" points="750.191,-340.674 760.394,-337.821 750.639,-333.688 750.191,-340.674"/>
<text text-anchor="middle" x="546.679" y="-313.8" font-family="Times,serif" font-size="14.00" fill="#dc4092">3</text>
<links><link target="task_c77fd43e-2256-4a79-97f8-a6905125fe2d"/></links></g>
<!-- [task] Find location of peers cf -->
<g id="task_53407652-4273-45fe-ac1a-4c31bc372f92" class="node"><title>[task] Find location of peers cf</title>
<polygon fill="none" stroke="black" points="1053.71,-280.544 1053.71,-295.456 956.437,-306 818.878,-306 721.61,-295.456 721.61,-280.544 818.878,-270 956.437,-270 1053.71,-280.544"/>
<text text-anchor="middle" x="887.658" y="-284.3" font-family="Times,serif" font-size="14.00">[task] Find location of peers cf</text>
</g>
<!-- Play #3: {{ target_group }} (0)&#45;&gt;[task] Find location of peers cf -->
<g id="edge_5352e1a7-826a-42b7-8bdc-9e9248398569" class="edge"><title>Play #3: {{ target_group }} (0)-&gt;[task] Find location of peers cf</title>
<path fill="none" stroke="#dc4092" stroke-width="2" d="M523.808,-267.778C583.673,-271.115 656.731,-275.186 721.559,-278.799"/>
<polygon fill="#dc4092" stroke="#dc4092" stroke-width="2" points="721.71,-282.313 731.889,-279.375 722.1,-275.324 721.71,-282.313"/>
<text text-anchor="middle" x="546.679" y="-271.8" font-family="Times,serif" font-size="14.00" fill="#dc4092">4</text>
<links><link target="task_53407652-4273-45fe-ac1a-4c31bc372f92"/></links></g>
<!-- [task] Clean peers -->
<g id="task_15ba7c48-1013-4111-a0a0-ee3a349f164d" class="node"><title>[task] Clean peers</title>
<polygon fill="none" stroke="black" points="991.892,-226.544 991.892,-241.456 930.833,-252 844.483,-252 783.424,-241.456 783.424,-226.544 844.483,-216 930.833,-216 991.892,-226.544"/>
<text text-anchor="middle" x="887.658" y="-230.3" font-family="Times,serif" font-size="14.00">[task] Clean peers</text>
</g>
<!-- Play #3: {{ target_group }} (0)&#45;&gt;[task] Clean peers -->
<g id="edge_fe42b743-07f6-4fb5-a87f-837e9dc93f40" class="edge"><title>Play #3: {{ target_group }} (0)-&gt;[task] Clean peers</title>
<path fill="none" stroke="#dc4092" stroke-width="2" d="M523.887,-250.225C529.901,-249.788 535.858,-249.377 541.679,-249 618.782,-244.01 705.69,-240.242 772.986,-237.731"/>
<polygon fill="#dc4092" stroke="#dc4092" stroke-width="2" points="773.327,-241.221 783.191,-237.354 773.069,-234.226 773.327,-241.221"/>
<text text-anchor="middle" x="546.679" y="-252.8" font-family="Times,serif" font-size="14.00" fill="#dc4092">5</text>
<links><link target="task_15ba7c48-1013-4111-a0a0-ee3a349f164d"/></links></g>
<!-- [task] Find commitlogs to restore -->
<g id="task_b374772f-bd9c-424c-b6d0-0d8cb5253711" class="node"><title>[task] Find commitlogs to restore</title>
<polygon fill="none" stroke="black" points="1068.25,-172.544 1068.25,-187.456 962.463,-198 812.853,-198 707.063,-187.456 707.063,-172.544 812.853,-162 962.463,-162 1068.25,-172.544"/>
<text text-anchor="middle" x="887.658" y="-176.3" font-family="Times,serif" font-size="14.00">[task] Find commitlogs to restore</text>
</g>
<!-- Play #3: {{ target_group }} (0)&#45;&gt;[task] Find commitlogs to restore -->
<g id="edge_6f66b8f3-5f19-45f0-97bb-4db7a0d8cfc5" class="edge"><title>Play #3: {{ target_group }} (0)-&gt;[task] Find commitlogs to restore</title>
<path fill="none" stroke="#dc4092" stroke-width="2" d="M448.355,-242.98C481.58,-230.791 527.743,-215.432 569.679,-207 611.75,-198.541 657.482,-192.73 700.778,-188.738"/>
<polygon fill="#dc4092" stroke="#dc4092" stroke-width="2" points="701.199,-192.214 710.848,-187.838 700.576,-185.242 701.199,-192.214"/>
<text text-anchor="middle" x="546.679" y="-215.8" font-family="Times,serif" font-size="14.00" fill="#dc4092">6</text>
<links><link target="task_b374772f-bd9c-424c-b6d0-0d8cb5253711"/></links></g>
<!-- [task] Restore commitlogs -->
<g id="task_2ec30617-97bc-457e-af10-49d693bcf9a0" class="node"><title>[task] Restore commitlogs</title>
<polygon fill="none" stroke="black" points="1032.5,-118.544 1032.5,-133.456 947.652,-144 827.664,-144 742.819,-133.456 742.819,-118.544 827.664,-108 947.652,-108 1032.5,-118.544"/>
<text text-anchor="middle" x="887.658" y="-122.3" font-family="Times,serif" font-size="14.00">[task] Restore commitlogs</text>
</g>
<!-- Play #3: {{ target_group }} (0)&#45;&gt;[task] Restore commitlogs -->
<g id="edge_01cd4470-c741-427d-aeb0-ad0f148c9e98" class="edge"><title>Play #3: {{ target_group }} (0)-&gt;[task] Restore commitlogs</title>
<path fill="none" stroke="#dc4092" stroke-width="2" d="M422.615,-242.994C452.526,-217.834 511.063,-173.001 569.679,-153 621.118,-135.448 679.849,-127.4 732.665,-124.144"/>
<polygon fill="#dc4092" stroke="#dc4092" stroke-width="2" points="733.013,-127.63 742.8,-123.573 732.619,-120.641 733.013,-127.63"/>
<text text-anchor="middle" x="546.679" y="-165.8" font-family="Times,serif" font-size="14.00" fill="#dc4092">7</text>
<links><link target="task_2ec30617-97bc-457e-af10-49d693bcf9a0"/></links></g>
<!-- [task] Start cassandra -->
<g id="task_41d93303-36e5-4ab2-9222-8e98a37f2dbb" class="node"><title>[task] Start cassandra</title>
<polygon fill="none" stroke="black" points="1011.29,-64.5442 1011.29,-79.4558 938.867,-90 836.449,-90 764.028,-79.4558 764.028,-64.5442 836.449,-54 938.867,-54 1011.29,-64.5442"/>
<text text-anchor="middle" x="887.658" y="-68.3" font-family="Times,serif" font-size="14.00">[task] Start cassandra</text>
</g>
<!-- Play #3: {{ target_group }} (0)&#45;&gt;[task] Start cassandra -->
<g id="edge_e6ef52d6-ec1b-4b95-9481-31b8e315dfa6" class="edge"><title>Play #3: {{ target_group }} (0)-&gt;[task] Start cassandra</title>
<path fill="none" stroke="#dc4092" stroke-width="2" d="M414.323,-242.814C438.883,-207.772 498.237,-131.492 569.679,-99 628.73,-72.1437 700.32,-64.2475 760.513,-63.5668"/>
<polygon fill="#dc4092" stroke="#dc4092" stroke-width="2" points="760.857,-67.0653 770.841,-63.5188 760.825,-60.0654 760.857,-67.0653"/>
<text text-anchor="middle" x="546.679" y="-116.8" font-family="Times,serif" font-size="14.00" fill="#dc4092">8</text>
<links><link target="task_41d93303-36e5-4ab2-9222-8e98a37f2dbb"/></links></g>
<!-- [task] Wait until cassandra is up (max 2h) -->
<g id="task_9ac0c9dd-0b72-4e31-af10-82b1a4c8b508" class="node"><title>[task] Wait until cassandra is up (max 2h)</title>
<polygon fill="none" stroke="black" points="1109.77,-10.5442 1109.77,-25.4558 979.658,-36 795.658,-36 665.551,-25.4558 665.551,-10.5442 795.658,-3.55271e-15 979.658,-0 1109.77,-10.5442"/>
<text text-anchor="middle" x="887.658" y="-14.3" font-family="Times,serif" font-size="14.00">[task] Wait until cassandra is up (max 2h)</text>
</g>
<!-- Play #3: {{ target_group }} (0)&#45;&gt;[task] Wait until cassandra is up (max 2h) -->
<g id="edge_44dc5f1c-a86d-45a3-9974-049134632f95" class="edge"><title>Play #3: {{ target_group }} (0)-&gt;[task] Wait until cassandra is up (max 2h)</title>
<path fill="none" stroke="#dc4092" stroke-width="2" d="M409.863,-242.977C429.314,-199.877 485.052,-91.022 569.679,-45 595.944,-30.717 625.273,-21.2671 655.197,-15.245"/>
<polygon fill="#dc4092" stroke="#dc4092" stroke-width="2" points="656.184,-18.6208 665.364,-13.3321 654.89,-11.7415 656.184,-18.6208"/>
<text text-anchor="middle" x="546.679" y="-63.8" font-family="Times,serif" font-size="14.00" fill="#dc4092">9</text>
<links><link target="task_9ac0c9dd-0b72-4e31-af10-82b1a4c8b508"/></links></g>
</g>
</svg>