<?xml version='1.0' encoding='UTF-8'?>
<!DOCTYPE svg PUBLIC "-//W3C//DTD SVG 1.1//EN" "http://www.w3.org/Graphics/SVG/1.1/DTD/svg11.dtd">
<!-- Generated by graphviz version 2.38.0 (20140413.2041)
 --><!-- Title: %3 Pages: 1 --><svg xmlns="http://www.w3.org/2000/svg" xmlns:xlink="http://www.w3.org/1999/xlink" width="2975pt" height="956pt" viewBox="0.00 0.00 2974.57 955.75" id="svg">
<script href="https://ajax.googleapis.com/ajax/libs/jquery/3.2.1/jquery.min.js" id="jquery" type="text/javascript"/><script id="my_javascript" type="text/javascript"><![CDATA[const HOVER_CLASS = "my_hover";

var selectedElement = null;

function addClass(rootElement) {
    $(rootElement).find('link').each(function (index, element) {
        var target = $(element).attr('target');
        var currentElement = $('#' + target);
        currentElement.addClass(HOVER_CLASS);

        addClass(currentElement);
    })
}

function removeClass(rootElement, hover) {
    $(rootElement).find('link').each(function (index, element) {
        if ($(rootElement).attr('id') !== $(selectedElement).attr('id') || !hover) {
            var target = $(element).attr('target');
            var currentElement = $('#' + target);
            currentElement.removeClass(HOVER_CLASS);

            removeClass(currentElement);
        }

    })
}

function hoverIn(event) {
    addClass(event.currentTarget);
}

function hoverOut(event) {
    removeClass(event.currentTarget, true);
}

function clickOnElement(event) {
    var newElement = event.currentTarget;

    if ($(newElement).attr('id') === $(selectedElement).attr('id')) {
        removeClass(selectedElement, false);
    } else {
        removeClass(selectedElement);
        addClass(newElement)
    }

    selectedElement = newElement;
}


$("#svg").ready(function () {

    $("g[id^=play_]").hover(hoverIn, hoverOut);
    $("g[id^=role_]").hover(hoverIn, hoverOut);

    $("g[id^=play_]").click(clickOnElement);
    $("g[id^=role_]").click(clickOnElement);

});
]]></script><style id="my_css" type="text/css"><![CDATA[.node:hover, .edge:hover, path:hover, path + polygon:hover {
    cursor: pointer;
    stroke-width: 3;
    font-weight: bolder;
}

.my_hover {
    cursor: pointer;
    stroke-width: 3;
    font-weight: bolder;
}

/**
Each element whose id ends with "not_tagged"
 */
[id$=not_tagged] {
    opacity: 0.3;
}]]></style><g id="graph0" class="graph" transform="scale(1 1) rotate(0) translate(4 951.75)">
<polygon fill="white" stroke="none" points="-4,4 -4,-951.75 2970.57,-951.75 2970.57,4 -4,4"/>
<!-- cassandra.yml -->
<g id="root_node" class="node"><title>cassandra.yml</title>
<ellipse fill="none" stroke="black" stroke-dasharray="1,5" cx="77.9931" cy="-511.75" rx="77.9862" ry="18"/>
<text text-anchor="middle" x="77.9931" y="-508.05" font-family="Times,serif" font-size="14.00">cassandra.yml</text>
</g>
<!-- Play #1: {{ target_group }} (0) -->
<g id="play_a8c6df0f-fe49-41c8-a1ac-a3999beae371" class="node"><title>Play #1: {{ target_group }} (0)</title>
<polygon fill="#ac39e9" stroke="#ac39e9" points="446.986,-529.75 201.986,-529.75 201.986,-493.75 446.986,-493.75 446.986,-529.75"/>
<text text-anchor="middle" x="324.486" y="-508.05" font-family="Times,serif" font-size="14.00" fill="#ffffff">Play #1: {{ target_group }} (0)</text>
<links><link target="edge_adf3e841-3f34-45d8-ae54-170f423f7f64"/><link target="edge_3c886744-6691-4eb2-a9ad-0e3411e5694c"/><link target="edge_f011e135-104b-44b6-98c0-7e6cc9d4279a"/><link target="edge_39f793b0-2f5c-4112-8a68-07c9ebb76696"/><link target="edge_0532fec5-c790-4082-9d3f-4abf1fcf496b"/><link target="edge_2432d0ea-dc70-404d-becc-552be189e39b"/><link target="edge_747b74c1-97c7-4f1d-bf14-dcad94cab528"/><link target="edge_d23f53a3-04c2-4126-8990-4a4ab6078cbb"/><link target="edge_0d9e666f-3230-49cd-883e-bac0b647f77e"/><link target="edge_a37f849e-7f9e-4b65-a7f3-b395f4062198"/><link target="edge_758445de-0680-4ad8-ae5e-ddf58a9d3ff4"/><link target="edge_f132b1e1-0f07-4d7f-b804-7e743da1f329"/><link target="edge_6e7861c8-da1e-4652-8e1a-39a753c26404"/><link target="edge_82e286a5-9bd9-473a-b95b-61d2a30a9514"/><link target="edge_e46f3e4d-7f61-40cb-8ba4-a8e67ec9bb66"/><link target="edge_331370e7-eebe-4a9e-ad29-1643a664a173"/><link target="edge_2b246538-50a1-463c-be3b-dc6a0b6f6682"/><link target="edge_4aa1bfd9-3423-4b12-b28c-3f052472c55f"/></links></g>
<!-- cassandra.yml&#45;&gt;Play #1: {{ target_group }} (0) -->
<g id="edge_91086111-c1b6-4c53-ab24-6cb76618025f" class="edge"><title>cassandra.yml-&gt;Play #1: {{ target_group }} (0)</title>
<path fill="none" stroke="#ac39e9" stroke-width="2" d="M156.017,-511.75C167.389,-511.75 179.37,-511.75 191.479,-511.75"/>
<polygon fill="#ac39e9" stroke="#ac39e9" stroke-width="2" points="191.671,-515.25 201.671,-511.75 191.67,-508.25 191.671,-515.25"/>
<text text-anchor="middle" x="178.986" y="-515.55" font-family="Times,serif" font-size="14.00" fill="#ac39e9">1</text>
</g>
<!-- [task] Start cassandra on {{inventory_hostname}} -->
<g id="task_273852a5-5a91-4cd5-9683-6f20009f808e" class="node"><title>[task] Start cassandra on {{inventory_hostname}}</title>
<polygon fill="none" stroke="black" points="2915.15,-909.294 2915.15,-924.206 2757.36,-934.75 2534.2,-934.75 2376.4,-924.206 2376.4,-909.294 2534.2,-898.75 2757.36,-898.75 2915.15,-909.294"/>
<text text-anchor="middle" x="2645.78" y="-913.05" font-family="Times,serif" font-size="14.00">[task] Start cassandra on {{inventory_hostname}}</text>
</g>
<!-- Play #1: {{ target_group }} (0)&#45;&gt;[task] Start cassandra on {{inventory_hostname}} -->
<g id="edge_adf3e841-3f34-45d8-ae54-170f423f7f64" class="edge"><title>Play #1: {{ target_group }} (0)-&gt;[task] Start cassandra on {{inventory_hostname}}</title>
<path fill="none" stroke="#ac39e9" stroke-width="2" d="M325.492,-529.971C326.619,-593.514 339.919,-806.255 464.986,-894.75 541.204,-948.681 1795.55,-932.53 2366.12,-922.304"/>
<polygon fill="#ac39e9" stroke="#ac39e9" stroke-width="2" points="2366.2,-925.803 2376.14,-922.123 2366.08,-918.804 2366.2,-925.803"/>
<text text-anchor="middle" x="1385.99" y="-936.55" font-family="Times,serif" font-size="14.00" fill="#ac39e9">1</text>
<links><link target="task_273852a5-5a91-4cd5-9683-6f20009f808e"/></links></g>
<!-- [task] Wait until cassandra on {{inventory_hostname}} is up -->
<g id="task_81649670-f7ee-4ddf-927c-2d6a625dc0b2" class="node"><title>[task] Wait until cassandra on {{inventory_hostname}} is up</title>
<polygon fill="none" stroke="black" points="2966.36,-855.294 2966.36,-870.206 2778.57,-880.75 2512.99,-880.75 2325.19,-870.206 2325.19,-855.294 2512.99,-844.75 2778.57,-844.75 2966.36,-855.294"/>
<text text-anchor="middle" x="2645.78" y="-859.05" font-family="Times,serif" font-size="14.00">[task] Wait until cassandra on {{inventory_hostname}} is up</text>
</g>
<!-- Play #1: {{ target_group }} (0)&#45;&gt;[task] Wait until cassandra on {{inventory_hostname}} is up -->
<g id="edge_3c886744-6691-4eb2-a9ad-0e3411e5694c" class="edge"><title>Play #1: {{ target_group }} (0)-&gt;[task] Wait until cassandra on {{inventory_hostname}} is up</title>
<path fill="none" stroke="#ac39e9" stroke-width="2" d="M326.643,-529.85C331.413,-587.455 354.917,-767.065 464.986,-840.75 540.302,-891.171 1723.78,-878.444 2314.55,-868.848"/>
<polygon fill="#ac39e9" stroke="#ac39e9" stroke-width="2" points="2314.99,-872.342 2324.93,-868.679 2314.88,-865.343 2314.99,-872.342"/>
<text text-anchor="middle" x="1385.99" y="-880.55" font-family="Times,serif" font-size="14.00" fill="#ac39e9">2</text>
<links><link target="task_81649670-f7ee-4ddf-927c-2d6a625dc0b2"/></links></g>
<!-- [task] pause -->
<g id="task_b290846e-bd5e-409e-bce2-73d8515039b4" class="node"><title>[task] pause</title>
<polygon fill="none" stroke="black" points="2719.11,-801.294 2719.11,-816.206 2676.15,-826.75 2615.41,-826.75 2572.45,-816.206 2572.45,-801.294 2615.41,-790.75 2676.15,-790.75 2719.11,-801.294"/>
<text text-anchor="middle" x="2645.78" y="-805.05" font-family="Times,serif" font-size="14.00">[task] pause</text>
</g>
<!-- Play #1: {{ target_group }} (0)&#45;&gt;[task] pause -->
<g id="edge_f011e135-104b-44b6-98c0-7e6cc9d4279a" class="edge"><title>Play #1: {{ target_group }} (0)-&gt;[task] pause</title>
<path fill="none" stroke="#ac39e9" stroke-width="2" d="M328.118,-530.013C336.68,-581.837 368.97,-729.925 464.986,-789.75 555.453,-846.118 2175.32,-817.979 2562.26,-810.426"/>
<polygon fill="#ac39e9" stroke="#ac39e9" stroke-width="2" points="2562.61,-813.92 2572.54,-810.224 2562.47,-806.921 2562.61,-813.92"/>
<text text-anchor="middle" x="1385.99" y="-827.55" font-family="Times,serif" font-size="14.00" fill="#ac39e9">3</text>
<links><link target="task_8efac80f-d18b-47df-9f33-3591a47eb6b1"/></links></g>
<!-- Play #1: {{ target_group }} (0)&#45;&gt;[task] pause -->
<g id="edge_0532fec5-c790-4082-9d3f-4abf1fcf496b" class="edge"><title>Play #1: {{ target_group }} (0)-&gt;[task] pause</title>
<path fill="none" stroke="#ac39e9" stroke-width="2" d="M329.554,-529.923C341.143,-576.83 379.192,-701.793 464.986,-751.75 509.205,-777.498 2257.8,-756.637 2306.99,-770.75 2316,-773.336 2316.08,-778.833 2324.99,-781.75 2402.64,-807.174 2496.27,-812.329 2562.09,-812.095"/>
<polygon fill="#ac39e9" stroke="#ac39e9" stroke-width="2" points="2562.44,-815.593 2572.41,-812.014 2562.38,-808.593 2562.44,-815.593"/>
<text text-anchor="middle" x="1385.99" y="-774.55" font-family="Times,serif" font-size="14.00" fill="#ac39e9">5  [when: inventory_hostname == groups[target_group][0]]</text>
<links><link target="task_b290846e-bd5e-409e-bce2-73d8515039b4"/></links></g>
<!-- [task] Change cassandra password -->
<g id="task_3cf07488-0473-4655-af3b-232c36d3128d" class="node"><title>[task] Change cassandra password</title>
<polygon fill="none" stroke="black" points="2833.44,-747.294 2833.44,-762.206 2723.51,-772.75 2568.05,-772.75 2458.11,-762.206 2458.11,-747.294 2568.05,-736.75 2723.51,-736.75 2833.44,-747.294"/>
<text text-anchor="middle" x="2645.78" y="-751.05" font-family="Times,serif" font-size="14.00">[task] Change cassandra password</text>
</g>
<!-- Play #1: {{ target_group }} (0)&#45;&gt;[task] Change cassandra password -->
<g id="edge_39f793b0-2f5c-4112-8a68-07c9ebb76696" class="edge"><title>Play #1: {{ target_group }} (0)-&gt;[task] Change cassandra password</title>
<path fill="none" stroke="#ac39e9" stroke-width="2" d="M331.456,-529.828C346.288,-571.412 389.191,-673.375 464.986,-713.75 510.149,-737.807 2255.84,-735.069 2306.99,-736.75 2361.16,-738.531 2420.19,-741.368 2473.52,-744.267"/>
<polygon fill="#ac39e9" stroke="#ac39e9" stroke-width="2" points="2473.58,-747.776 2483.75,-744.828 2473.96,-740.786 2473.58,-747.776"/>
<text text-anchor="middle" x="1385.99" y="-740.55" font-family="Times,serif" font-size="14.00" fill="#ac39e9">4  [when: inventory_hostname == groups[target_group][0]]</text>
<links><link target="task_3cf07488-0473-4655-af3b-232c36d3128d"/></links></g>
<!-- [task] Create ro user or change his password -->
<g id="task_06eb5710-a1b2-433c-b714-09f3ee384b07" class="node"><title>[task] Create ro user or change his password</title>
<polygon fill="none" stroke="black" points="2885.56,-693.294 2885.56,-708.206 2745.1,-718.75 2546.46,-718.75 2406,-708.206 2406,-693.294 2546.46,-682.75 2745.1,-682.75 2885.56,-693.294"/>
<text text-anchor="middle" x="2645.78" y="-697.05" font-family="Times,serif" font-size="14.00">[task] Create ro user or change his password</text>
</g>
<!-- Play #1: {{ target_group }} (0)&#45;&gt;[task] Create ro user or change his password -->
<g id="edge_2432d0ea-dc70-404d-becc-552be189e39b" class="edge"><title>Play #1: {{ target_group }} (0)-&gt;[task] Create ro user or change his password</title>
<path fill="none" stroke="#ac39e9" stroke-width="2" d="M334.968,-529.77C354.149,-564.036 401.217,-637.752 464.986,-666.75 486.709,-676.628 1828.16,-692.055 2395.62,-698.148"/>
<polygon fill="#ac39e9" stroke="#ac39e9" stroke-width="2" points="2395.95,-701.652 2405.98,-698.26 2396.02,-694.652 2395.95,-701.652"/>
<text text-anchor="middle" x="1385.99" y="-700.55" font-family="Times,serif" font-size="14.00" fill="#ac39e9">6  [when: inventory_hostname == groups[target_group][0]]</text>
<links><link target="task_06eb5710-a1b2-433c-b714-09f3ee384b07"/></links></g>
<!-- [task] Adjust RF for system_auth keyspace -->
<g id="task_970a1441-f009-4742-83ee-c4c754d1e82e" class="node"><title>[task] Adjust RF for system_auth keyspace</title>
<polygon fill="none" stroke="black" points="2874.55,-639.294 2874.55,-654.206 2740.54,-664.75 2551.02,-664.75 2417.01,-654.206 2417.01,-639.294 2551.02,-628.75 2740.54,-628.75 2874.55,-639.294"/>
<text text-anchor="middle" x="2645.78" y="-643.05" font-family="Times,serif" font-size="14.00">[task] Adjust RF for system_auth keyspace</text>
</g>
<!-- Play #1: {{ target_group }} (0)&#45;&gt;[task] Adjust RF for system_auth keyspace -->
<g id="edge_747b74c1-97c7-4f1d-bf14-dcad94cab528" class="edge"><title>Play #1: {{ target_group }} (0)-&gt;[task] Adjust RF for system_auth keyspace</title>
<path fill="none" stroke="#ac39e9" stroke-width="2" d="M341.744,-530.112C365.729,-555.676 413.362,-600.861 464.986,-618.75 555.264,-650.034 1859.74,-649.384 2406.46,-647.716"/>
<polygon fill="#ac39e9" stroke="#ac39e9" stroke-width="2" points="2406.85,-651.215 2416.84,-647.684 2406.83,-644.215 2406.85,-651.215"/>
<text text-anchor="middle" x="1385.99" y="-651.55" font-family="Times,serif" font-size="14.00" fill="#ac39e9">7  [when: inventory_hostname == groups[target_group][-1]target_group != 'cassandra-pr']</text>
<links><link target="task_970a1441-f009-4742-83ee-c4c754d1e82e"/></links></g>
<!-- [task] Give some time to replicate system_auth -->
<g id="task_4c56cc2d-95ff-49b7-bbc9-276c99eb7f0a" class="node"><title>[task] Give some time to replicate system_auth</title>
<polygon fill="none" stroke="black" points="2896.17,-585.294 2896.17,-600.206 2749.49,-610.75 2542.07,-610.75 2395.39,-600.206 2395.39,-585.294 2542.07,-574.75 2749.49,-574.75 2896.17,-585.294"/>
<text text-anchor="middle" x="2645.78" y="-589.05" font-family="Times,serif" font-size="14.00">[task] Give some time to replicate system_auth</text>
</g>
<!-- Play #1: {{ target_group }} (0)&#45;&gt;[task] Give some time to replicate system_auth -->
<g id="edge_d23f53a3-04c2-4126-8990-4a4ab6078cbb" class="edge"><title>Play #1: {{ target_group }} (0)-&gt;[task] Give some time to replicate system_auth</title>
<path fill="none" stroke="#ac39e9" stroke-width="2" d="M375.116,-529.855C401.436,-538.554 434.545,-548.084 464.986,-552.75 827.385,-608.301 1889.61,-602.682 2384.93,-596.662"/>
<polygon fill="#ac39e9" stroke="#ac39e9" stroke-width="2" points="2385.12,-600.16 2395.07,-596.538 2385.03,-593.16 2385.12,-600.16"/>
<text text-anchor="middle" x="1385.99" y="-603.55" font-family="Times,serif" font-size="14.00" fill="#ac39e9">8  [when: inventory_hostname == groups[target_group][-1]]</text>
<links><link target="task_4c56cc2d-95ff-49b7-bbc9-276c99eb7f0a"/></links></g>
<!-- [task] Schema owners -->
<g id="task_c259b9b4-bee1-4dd6-933f-411ac2e49186" class="node"><title>[task] Schema owners</title>
<polygon fill="none" stroke="black" points="2769,-531.294 2769,-546.206 2696.82,-556.75 2594.74,-556.75 2522.56,-546.206 2522.56,-531.294 2594.74,-520.75 2696.82,-520.75 2769,-531.294"/>
<text text-anchor="middle" x="2645.78" y="-535.05" font-family="Times,serif" font-size="14.00">[task] Schema owners</text>
</g>
<!-- Play #1: {{ target_group }} (0)&#45;&gt;[task] Schema owners -->
<g id="edge_0d9e666f-3230-49cd-883e-bac0b647f77e" class="edge"><title>Play #1: {{ target_group }} (0)-&gt;[task] Schema owners</title>
<path fill="none" stroke="#ac39e9" stroke-width="2" d="M447.322,-513.168C844.559,-517.793 2100.27,-532.411 2512.35,-537.208"/>
<polygon fill="#ac39e9" stroke="#ac39e9" stroke-width="2" points="2512.48,-540.71 2522.52,-537.327 2512.56,-533.711 2512.48,-540.71"/>
<text text-anchor="middle" x="1385.99" y="-537.55" font-family="Times,serif" font-size="14.00" fill="#ac39e9">9  [when: inventory_hostname == groups[target_group][-1]cassandra_app_schemas|length &gt; 0]</text>
<links><link target="task_c259b9b4-bee1-4dd6-933f-411ac2e49186"/></links></g>
<!-- [task] Schema keyspaces -->
<g id="task_0021be5b-f955-4da2-a1e8-07d922e70e60" class="node"><title>[task] Schema keyspaces</title>
<polygon fill="none" stroke="black" points="2784.45,-477.294 2784.45,-492.206 2703.22,-502.75 2588.34,-502.75 2507.1,-492.206 2507.1,-477.294 2588.34,-466.75 2703.22,-466.75 2784.45,-477.294"/>
<text text-anchor="middle" x="2645.78" y="-481.05" font-family="Times,serif" font-size="14.00">[task] Schema keyspaces</text>
</g>
<!-- Play #1: {{ target_group }} (0)&#45;&gt;[task] Schema keyspaces -->
<g id="edge_a37f849e-7f9e-4b65-a7f3-b395f4062198" class="edge"><title>Play #1: {{ target_group }} (0)-&gt;[task] Schema keyspaces</title>
<path fill="none" stroke="#ac39e9" stroke-width="2" d="M447.13,-495.151C453.161,-494.611 459.138,-494.138 464.986,-493.75 1228.21,-443.131 2145.05,-466.832 2497.17,-479.051"/>
<polygon fill="#ac39e9" stroke="#ac39e9" stroke-width="2" points="2497.05,-482.549 2507.17,-479.4 2497.3,-475.554 2497.05,-482.549"/>
<text text-anchor="middle" x="1385.99" y="-497.55" font-family="Times,serif" font-size="14.00" fill="#ac39e9">10  [when: inventory_hostname == groups[target_group][-1]cassandra_app_schemas|length &gt; 0item.0.owner is defineditem.1.name is defined]</text>
<links><link target="task_0021be5b-f955-4da2-a1e8-07d922e70e60"/></links></g>
<!-- [task] Access to schema keyspaces -->
<g id="task_8a02e693-51e0-44ac-b5b3-b957d29228b9" class="node"><title>[task] Access to schema keyspaces</title>
<polygon fill="none" stroke="black" points="2835.26,-423.294 2835.26,-438.206 2724.26,-448.75 2567.29,-448.75 2456.3,-438.206 2456.3,-423.294 2567.29,-412.75 2724.26,-412.75 2835.26,-423.294"/>
<text text-anchor="middle" x="2645.78" y="-427.05" font-family="Times,serif" font-size="14.00">[task] Access to schema keyspaces</text>
</g>
<!-- Play #1: {{ target_group }} (0)&#45;&gt;[task] Access to schema keyspaces -->
<g id="edge_758445de-0680-4ad8-ae5e-ddf58a9d3ff4" class="edge"><title>Play #1: {{ target_group }} (0)-&gt;[task] Access to schema keyspaces</title>
<path fill="none" stroke="#ac39e9" stroke-width="2" d="M352.643,-493.64C379.767,-476.714 423.312,-452.614 464.986,-442.75 654.204,-397.962 1944.54,-417.354 2446.03,-426.742"/>
<polygon fill="#ac39e9" stroke="#ac39e9" stroke-width="2" points="2446.21,-430.246 2456.27,-426.934 2446.34,-423.247 2446.21,-430.246"/>
<text text-anchor="middle" x="1385.99" y="-446.55" font-family="Times,serif" font-size="14.00" fill="#ac39e9">11  [when: inventory_hostname == groups[target_group][-1]cassandra_app_schemas|length &gt; 0item.0.owner is defineditem.1.name is defined]</text>
<links><link target="task_8a02e693-51e0-44ac-b5b3-b957d29228b9"/></links></g>
<!-- [task] Create Additional users (Cassandra) -->
<g id="task_3ee85d14-c67a-4749-821b-7a56e78cbe36" class="node"><title>[task] Create Additional users (Cassandra)</title>
<polygon fill="none" stroke="black" points="2873.24,-369.294 2873.24,-384.206 2739.99,-394.75 2551.56,-394.75 2418.32,-384.206 2418.32,-369.294 2551.56,-358.75 2739.99,-358.75 2873.24,-369.294"/>
<text text-anchor="middle" x="2645.78" y="-373.05" font-family="Times,serif" font-size="14.00">[task] Create Additional users (Cassandra)</text>
</g>
<!-- Play #1: {{ target_group }} (0)&#45;&gt;[task] Create Additional users (Cassandra) -->
<g id="edge_f132b1e1-0f07-4d7f-b804-7e743da1f329" class="edge"><title>Play #1: {{ target_group }} (0)-&gt;[task] Create Additional users (Cassandra)</title>
<path fill="none" stroke="#ac39e9" stroke-width="2" d="M339.807,-493.514C362.747,-465.945 410.71,-414.752 464.986,-394.75 643.12,-329.104 1881.18,-355.308 2408.17,-369.706"/>
<polygon fill="#ac39e9" stroke="#ac39e9" stroke-width="2" points="2408.09,-373.205 2418.18,-369.98 2408.28,-366.207 2408.09,-373.205"/>
<text text-anchor="middle" x="1385.99" y="-398.55" font-family="Times,serif" font-size="14.00" fill="#ac39e9">12  [when: item.user is definedinventory_hostname == groups[target_group][-1]]</text>
<links><link target="task_3ee85d14-c67a-4749-821b-7a56e78cbe36"/></links></g>
<!-- [task] Grant permissions for Additional users (Cassandra) -->
<g id="task_15ea97d8-9d67-42ae-8ce7-34bd4f03cc27" class="node"><title>[task] Grant permissions for Additional users (Cassandra)</title>
<polygon fill="none" stroke="black" points="2949.19,-315.294 2949.19,-330.206 2771.46,-340.75 2520.1,-340.75 2342.37,-330.206 2342.37,-315.294 2520.1,-304.75 2771.46,-304.75 2949.19,-315.294"/>
<text text-anchor="middle" x="2645.78" y="-319.05" font-family="Times,serif" font-size="14.00">[task] Grant permissions for Additional users (Cassandra)</text>
</g>
<!-- Play #1: {{ target_group }} (0)&#45;&gt;[task] Grant permissions for Additional users (Cassandra) -->
<g id="edge_6e7861c8-da1e-4652-8e1a-39a753c26404" class="edge"><title>Play #1: {{ target_group }} (0)-&gt;[task] Grant permissions for Additional users (Cassandra)</title>
<path fill="none" stroke="#ac39e9" stroke-width="2" d="M332.942,-493.646C349.811,-455.417 394.971,-367.151 464.986,-332.75 547.095,-292.408 1749.12,-307.311 2332.15,-317.013"/>
<polygon fill="#ac39e9" stroke="#ac39e9" stroke-width="2" points="2332.34,-320.517 2342.39,-317.184 2332.45,-313.518 2332.34,-320.517"/>
<text text-anchor="middle" x="1385.99" y="-336.55" font-family="Times,serif" font-size="14.00" fill="#ac39e9">13  [when: item.0.user is defineditem.1.name is definedinventory_hostname == groups[target_group][-1]]</text>
<links><link target="task_15ea97d8-9d67-42ae-8ce7-34bd4f03cc27"/></links></g>
<!-- [task] Setup schema content if managed with Pillar -->
<g id="task_e8fd165b-c413-4ce9-9a84-a4d091253ece" class="node"><title>[task] Setup schema content if managed with Pillar</title>
<polygon fill="none" stroke="black" points="2916.47,-261.294 2916.47,-276.206 2757.9,-286.75 2533.66,-286.75 2375.09,-276.206 2375.09,-261.294 2533.66,-250.75 2757.9,-250.75 2916.47,-261.294"/>
<text text-anchor="middle" x="2645.78" y="-265.05" font-family="Times,serif" font-size="14.00">[task] Setup schema content if managed with Pillar</text>
</g>
<!-- Play #1: {{ target_group }} (0)&#45;&gt;[task] Setup schema content if managed with Pillar -->
<g id="edge_82e286a5-9bd9-473a-b95b-61d2a30a9514" class="edge"><title>Play #1: {{ target_group }} (0)-&gt;[task] Setup schema content if managed with Pillar</title>
<path fill="none" stroke="#ac39e9" stroke-width="2" d="M330.204,-493.687C343.001,-448.857 383.05,-332.801 464.986,-286.75 546.29,-241.056 1795.17,-255.066 2365.05,-263.922"/>
<polygon fill="#ac39e9" stroke="#ac39e9" stroke-width="2" points="2365.01,-267.422 2375.06,-264.078 2365.12,-260.423 2365.01,-267.422"/>
<text text-anchor="middle" x="1385.99" y="-290.55" font-family="Times,serif" font-size="14.00" fill="#ac39e9">14  [when: inventory_hostname == groups[target_group][-1]item.0.owner is defineditem.1.name is defineditem.1.schematype == 'pillar']</text>
<links><link target="task_e8fd165b-c413-4ce9-9a84-a4d091253ece"/></links></g>
<!-- [task] Specific table pre&#45;created -->
<g id="task_905a8295-163d-49ed-8a40-d608f06eaffe" class="node"><title>[task] Specific table pre-created</title>
<polygon fill="none" stroke="black" points="2819.3,-207.294 2819.3,-222.206 2717.66,-232.75 2573.9,-232.75 2472.25,-222.206 2472.25,-207.294 2573.9,-196.75 2717.66,-196.75 2819.3,-207.294"/>
<text text-anchor="middle" x="2645.78" y="-211.05" font-family="Times,serif" font-size="14.00">[task] Specific table pre-created</text>
</g>
<!-- Play #1: {{ target_group }} (0)&#45;&gt;[task] Specific table pre&#45;created -->
<g id="edge_e46f3e4d-7f61-40cb-8ba4-a8e67ec9bb66" class="edge"><title>Play #1: {{ target_group }} (0)-&gt;[task] Specific table pre-created</title>
<path fill="none" stroke="#ac39e9" stroke-width="2" d="M328.143,-493.553C336.77,-441.914 369.216,-294.356 464.986,-234.75 549.047,-182.432 1952.69,-202.293 2462.01,-211.281"/>
<polygon fill="#ac39e9" stroke="#ac39e9" stroke-width="2" points="2461.97,-214.78 2472.03,-211.458 2462.09,-207.781 2461.97,-214.78"/>
<text text-anchor="middle" x="1385.99" y="-238.55" font-family="Times,serif" font-size="14.00" fill="#ac39e9">15  [when: inventory_hostname == groups[target_group][-1]item.0.owner is defineditem.1.name is defineditem.1.schematype == 'pillar'item.0.owner.endswith('_replicator') or 'rng' in item.0.owneritem.1.name.endswith('_replicator') or 'rng' in item.1.name]</text>
<links><link target="task_905a8295-163d-49ed-8a40-d608f06eaffe"/></links></g>
<!-- [task] Adjust Akka Journal schemas -->
<g id="task_3080b442-944f-4751-994f-c9cd29f4b792" class="node"><title>[task] Adjust Akka Journal schemas</title>
<polygon fill="none" stroke="black" points="2837.89,-153.294 2837.89,-168.206 2725.35,-178.75 2566.21,-178.75 2453.67,-168.206 2453.67,-153.294 2566.21,-142.75 2725.35,-142.75 2837.89,-153.294"/>
<text text-anchor="middle" x="2645.78" y="-157.05" font-family="Times,serif" font-size="14.00">[task] Adjust Akka Journal schemas</text>
</g>
<!-- Play #1: {{ target_group }} (0)&#45;&gt;[task] Adjust Akka Journal schemas -->
<g id="edge_331370e7-eebe-4a9e-ad29-1643a664a173" class="edge"><title>Play #1: {{ target_group }} (0)-&gt;[task] Adjust Akka Journal schemas</title>
<path fill="none" stroke="#ac39e9" stroke-width="2" d="M326.6,-493.541C331.241,-435.586 354.397,-254.885 464.986,-180.75 546.253,-126.272 1918.87,-146.764 2443.31,-156.648"/>
<polygon fill="#ac39e9" stroke="#ac39e9" stroke-width="2" points="2443.57,-160.154 2453.63,-156.844 2443.7,-153.155 2443.57,-160.154"/>
<text text-anchor="middle" x="1385.99" y="-184.55" font-family="Times,serif" font-size="14.00" fill="#ac39e9">16  [when: inventory_hostname == groups[target_group][-1]item.0.owner is defineditem.1.name is defineditem.1.schematype == 'akka.journal']</text>
<links><link target="task_3080b442-944f-4751-994f-c9cd29f4b792"/></links></g>
<!-- [task] Adjust Akka Snapshot schemas -->
<g id="task_df5f056e-2815-461e-ac05-1498f313d5be" class="node"><title>[task] Adjust Akka Snapshot schemas</title>
<polygon fill="none" stroke="black" points="2847.58,-99.2943 2847.58,-114.206 2729.37,-124.75 2562.19,-124.75 2443.97,-114.206 2443.97,-99.2943 2562.19,-88.7501 2729.37,-88.7501 2847.58,-99.2943"/>
<text text-anchor="middle" x="2645.78" y="-103.05" font-family="Times,serif" font-size="14.00">[task] Adjust Akka Snapshot schemas</text>
</g>
<!-- Play #1: {{ target_group }} (0)&#45;&gt;[task] Adjust Akka Snapshot schemas -->
<g id="edge_2b246538-50a1-463c-be3b-dc6a0b6f6682" class="edge"><title>Play #1: {{ target_group }} (0)-&gt;[task] Adjust Akka Snapshot schemas</title>
<path fill="none" stroke="#ac39e9" stroke-width="2" d="M325.414,-493.338C326.284,-429.128 338.832,-214.156 464.986,-124.75 544.325,-68.5222 1901.72,-90.9878 2433.51,-102.023"/>
<polygon fill="#ac39e9" stroke="#ac39e9" stroke-width="2" points="2433.53,-105.524 2443.6,-102.233 2433.68,-98.5255 2433.53,-105.524"/>
<text text-anchor="middle" x="1385.99" y="-128.55" font-family="Times,serif" font-size="14.00" fill="#ac39e9">17  [when: inventory_hostname == groups[target_group][-1]item.0.owner is defineditem.1.name is defineditem.1.schematype == 'akka.snapshot']</text>
<links><link target="task_df5f056e-2815-461e-ac05-1498f313d5be"/></links></g>
<!-- [task] Import zipkin cassandra schema -->
<g id="task_455b5f27-537f-4cb3-8799-b61e74a0974d" class="node"><title>[task] Import zipkin cassandra schema</title>
<polygon fill="none" stroke="black" points="2854.25,-45.2943 2854.25,-60.206 2732.13,-70.7501 2559.43,-70.7501 2437.31,-60.206 2437.31,-45.2943 2559.43,-34.7501 2732.13,-34.7501 2854.25,-45.2943"/>
<text text-anchor="middle" x="2645.78" y="-49.0501" font-family="Times,serif" font-size="14.00">[task] Import zipkin cassandra schema</text>
</g>
<!-- Play #1: {{ target_group }} (0)&#45;&gt;[task] Import zipkin cassandra schema -->
<g id="edge_4aa1bfd9-3423-4b12-b28c-3f052472c55f" class="edge"><title>Play #1: {{ target_group }} (0)-&gt;[task] Import zipkin cassandra schema</title>
<path fill="none" stroke="#ac39e9" stroke-width="2" d="M328.322,-493.717C340.728,-417.35 392.85,-122.071 464.986,-68.7501 623.196,48.1938 1962.61,-14.288 2459.9,-41.867"/>
<polygon fill="#ac39e9" stroke="#ac39e9" stroke-width="2" points="2459.87,-45.3706 2470.05,-42.4315 2460.26,-38.3814 2459.87,-45.3706"/>
<text text-anchor="middle" x="1385.99" y="-72.5501" font-family="Times,serif" font-size="14.00" fill="#ac39e9">18  [when: inventory_hostname == groups[target_group][-1]zipkin_schema_import is definedzipkin_schema_import|bool == trueitem.0.owner is defineditem.1.name is defineditem.1.schematype == 'zipkin']</text>
<links><link target="task_455b5f27-537f-4cb3-8799-b61e74a0974d"/></links></g>
</g>
</svg>